<?xml version="1.0" encoding="UTF-8"?>
<svg width="16px" height="16px" viewBox="0 0 16 16" version="1.1" xmlns="http://www.w3.org/2000/svg" xmlns:xlink="http://www.w3.org/1999/xlink">
    <title>file_type_prettier</title>
    <g id="file_type_prettier" stroke="none" fill="none" fill-rule="evenodd" stroke-width="1">
        <g id="Group-2" transform="translate(2, 1)">
            <g id="file_type_prettier_icon_130235" transform="translate(1, 1)" fill-rule="nonzero" stroke-width="0.1">
                <path d="M1.42850067,10.2853566 C1.56365261,10.2853566 1.67687058,10.3792658 1.70646037,10.505391 L1.71400062,10.5708526 C1.71400062,10.6465708 1.68392125,10.7191879 1.63037962,10.7727288 C1.57683799,10.8262696 1.50421996,10.8563486 1.42850067,10.8563486 L0.285500832,10.8563486 C0.150516075,10.8563486 0.0373813165,10.7626632 0.00763793255,10.636725 L4.355732e-07,10.5713526 C-0.000131886051,10.4955478 0.0298888689,10.4228022 0.0834448933,10.3691531 C0.137000918,10.3155041 0.209694825,10.2853566 0.285500832,10.2853566 L1.42850067,10.2853566 Z M2.5715005,6.8569047 C2.70665245,6.8569047 2.81987041,6.95081394 2.8494602,7.07693908 L2.85700046,7.14240069 C2.85700046,7.30007578 2.72917777,7.42789669 2.5715005,7.42789669 L0.285500832,7.42789669 C0.150516075,7.42789669 0.0373813165,7.33421131 0.00763793255,7.20827311 L4.355732e-07,7.14290068 C-0.000131886051,7.06709585 0.0298888689,6.99435031 0.0834448933,6.94070123 C0.137000918,6.88705216 0.209694825,6.8569047 0.285500832,6.8569047 L2.5715005,6.8569047 Z M9.4284995,5.71442072 C9.56365145,5.71442072 9.67686941,5.80832996 9.7064592,5.9344551 L9.71399946,5.99991672 C9.71399946,6.1575918 9.58617677,6.28541271 9.4284995,6.28541271 L4.85700017,6.28541271 C4.72184822,6.28541271 4.60863025,6.19150347 4.57904047,6.06537833 L4.57150021,5.99991672 C4.57150021,5.92419847 4.60157958,5.85158145 4.65512121,5.79804056 C4.70866284,5.74449968 4.78128087,5.71442072 4.85700017,5.71442072 L9.4284995,5.71442072 Z M3.14300042,3.42845278 C3.27815236,3.42845278 3.39137033,3.52236203 3.42096012,3.64848717 L3.42850037,3.71394878 C3.42850037,3.87162386 3.30067769,3.99944478 3.14300042,3.99944478 L2.5715005,3.99944478 C2.43634855,3.99944478 2.32313059,3.90553553 2.2935408,3.77941039 L2.28600054,3.71394878 C2.28600054,3.5562737 2.41382323,3.42845278 2.5715005,3.42845278 L3.14300042,3.42845278 Z M9.4284995,2.28546882 C9.56365145,2.28546882 9.67686941,2.37937806 9.7064592,2.5055032 L9.71399946,2.57096481 C9.71399946,2.7286399 9.58617677,2.85646081 9.4284995,2.85646081 L8.85699958,2.85646081 C8.72184764,2.85646081 8.60862967,2.76255157 8.57903988,2.63642642 L8.57149963,2.57096481 C8.57149963,2.41328973 8.69932231,2.28546882 8.85699958,2.28546882 L9.4284995,2.28546882 Z M4.28550025,2.28546882 C4.4206522,2.28546882 4.53387016,2.37937806 4.56345995,2.5055032 L4.57100021,2.57096481 C4.57100021,2.7286399 4.44317752,2.85646081 4.28550025,2.85646081 L0.285500832,2.85646081 C0.150516075,2.85646081 0.0373813165,2.76277543 0.00763793255,2.63683723 L4.355732e-07,2.57146481 C-0.000131886051,2.49565997 0.0298888689,2.42291443 0.0834448933,2.36926535 C0.137000918,2.31561628 0.209694825,2.28546882 0.285500832,2.28546882 L4.28550025,2.28546882 Z M7.14299983,8.74019267e-07 C7.27815178,8.74019267e-07 7.39136975,0.0939101148 7.42095953,0.220035257 L7.42849979,0.285496869 C7.42849979,0.443171954 7.30067711,0.570992865 7.14299983,0.570992865 L0.285500832,0.570992865 C0.150348884,0.570992865 0.0371309186,0.477083624 0.00754113145,0.350958482 L8.74031469e-07,0.285496869 C8.74031469e-07,0.127821785 0.127823559,8.74019267e-07 0.285500832,8.74019267e-07 L7.14299983,8.74019267e-07 Z" id="Combined-Shape" stroke="#00B1B3" fill="#00B1B3"></path>
                <path d="M0.285500832,11.4283406 L3.14250042,11.4283406 C3.30017769,11.4283406 3.42800037,11.5561615 3.42800037,11.7138366 L3.42800037,11.7138366 C3.42800037,11.8715117 3.30017769,11.9993326 3.14250042,11.9993326 L0.285500832,11.9993326 C0.128018615,11.9993326 0.000276674762,11.8718164 4.355732e-07,11.7143366 L4.355732e-07,11.7143366 C-0.000131886051,11.6385317 0.0298888689,11.5657862 0.0834448933,11.5121371 C0.137000918,11.458488 0.209694825,11.4283406 0.285500832,11.4283406 Z M3.71450033,6.8569047 L6,6.8569047 C6.15767727,6.8569047 6.28549996,6.98472561 6.28549996,7.14240069 L6.28549996,7.14240069 C6.28549996,7.30007578 6.15767727,7.42789669 6,7.42789669 L3.71450033,7.42789669 C3.55682306,7.42789669 3.42900037,7.30007578 3.42900037,7.14240069 L3.42900037,7.14240069 C3.42900037,6.98472561 3.55682306,6.8569047 3.71450033,6.8569047 Z M0.285500832,1.14298484 L2.00000044,1.14298484 C2.15767786,1.14298484 2.28550098,1.27080575 2.28550098,1.42848084 L2.28550098,1.42848084 C2.2856333,1.50428568 2.25561255,1.57703121 2.20205652,1.63068029 C2.1485005,1.68432936 2.07580659,1.71447683 2.00000044,1.71447683 L0.285500832,1.71447683 C0.209694825,1.71447683 0.137000918,1.68432936 0.0834448933,1.63068029 C0.0298888689,1.57703121 -0.000131886051,1.50428568 4.355732e-07,1.42848084 L4.355732e-07,1.42848084 C4.355732e-07,1.27080575 0.127823559,1.14298484 0.285500832,1.14298484 L0.285500832,1.14298484 Z M0.285500832,5.71442028 L0.857000749,5.71442028 C0.93280664,5.71428796 1.00555319,5.7443083 1.05920301,5.79786358 C1.11285282,5.85141886 1.14300071,5.92411176 1.14300071,5.99991672 L1.14300071,5.99991672 C1.14300071,6.1575918 1.01517802,6.28541271 0.857500749,6.28541271 L0.285500832,6.28541271 C0.127823559,6.28541271 8.74031469e-07,6.1575918 8.74031469e-07,5.99991672 L8.74031469e-07,5.99991672 C8.74031469e-07,5.84224163 0.127823559,5.71442028 0.285500832,5.71442028 L0.285500832,5.71442028 Z M7.14299983,3.42845278 L9.99999942,3.42845278 C10.1576767,3.42845278 10.2854998,3.5562737 10.2854998,3.71394878 L10.2854998,3.71394878 C10.2856321,3.78975362 10.2556114,3.86249916 10.2020554,3.91614823 C10.1484993,3.9697973 10.0758054,3.99994477 9.99999942,3.99994477 L7.14299983,3.99994477 C6.98532256,3.99994477 6.85749944,3.87212386 6.85749944,3.71444877 L6.85749944,3.71444877 C6.85736712,3.63864393 6.88738787,3.5658984 6.94094389,3.51224932 C6.99449992,3.45860025 7.06719383,3.42845278 7.14299983,3.42845278 Z" id="Combined-Shape" stroke="#F26161" fill="#F26161"></path>
                <path d="M7.14299983,6.8569047 L8.85749988,6.8569047 C9.01517686,6.8569047 9.14299954,6.98472561 9.14299954,7.14240069 L9.14299954,7.14240069 C9.14299954,7.30007578 9.01517686,7.42789669 8.85749988,7.42789669 L7.14299983,7.42789669 C6.98532256,7.42789669 6.85749988,7.30007578 6.85749988,7.14240069 L6.85749988,7.14240069 C6.85749988,6.98472561 6.98532256,6.8569047 7.14299983,6.8569047 Z M0.285500832,9.14287263 L3.14250042,9.14287263 C3.30017769,9.14287263 3.42800037,9.27069354 3.42800037,9.42836863 L3.42800037,9.42836863 C3.42800037,9.58604371 3.30017769,9.71386462 3.14250042,9.71386462 L0.285500832,9.71386462 C0.127823559,9.71386462 8.74031469e-07,9.58604371 8.74031469e-07,9.42836863 L8.74031469e-07,9.42836863 C8.74031469e-07,9.27069354 0.127823559,9.14287263 0.285500832,9.14287263 Z M0.285500832,4.57143675 L3.14250042,4.57143675 C3.30017769,4.57143675 3.42800037,4.69925766 3.42800037,4.85693275 L3.42800037,4.85693275 C3.42800037,5.01460783 3.30017769,5.14242874 3.14250042,5.14242874 L0.285500832,5.14242874 C0.127823559,5.14242874 8.74031469e-07,5.01460783 8.74031469e-07,4.85693275 L8.74031469e-07,4.85693275 C8.74031469e-07,4.69925766 0.127823559,4.57143675 0.285500832,4.57143675 L0.285500832,4.57143675 Z M5.42850008,2.28546838 L7.71399975,2.28546838 C7.78989236,2.28533579 7.86271488,2.3154247 7.91637915,2.36908822 C7.97004341,2.42275173 8.00013274,2.49557325 8.00000015,2.57146481 L8.00000015,2.57146481 C8.00000015,2.72913989 7.87217702,2.8569608 7.71449975,2.8569608 L5.42850008,2.8569608 C5.27082281,2.8569608 5.14299969,2.72913989 5.14299969,2.57146481 L5.14299969,2.57146481 C5.14286736,2.49565997 5.17288812,2.42291443 5.22644414,2.36926535 C5.28000017,2.31561628 5.35269408,2.28546838 5.42850008,2.28546838 L5.42850008,2.28546838 Z M0.285500832,7.99988866 L0.857000749,7.99988866 C0.932720046,7.99988866 1.00533808,8.02996762 1.05887971,8.0835085 C1.11242133,8.13704939 1.14250071,8.20966641 1.14250071,8.28538466 L1.14250071,8.28538466 C1.14250071,8.44305974 1.01467802,8.57088065 0.857000749,8.57088065 L0.285500832,8.57088065 C0.127823559,8.57088065 8.74031469e-07,8.44305974 8.74031469e-07,8.28538466 L8.74031469e-07,8.28538466 C8.74031469e-07,8.20966641 0.0300802476,8.13704939 0.0836218758,8.0835085 C0.137163504,8.02996762 0.209781536,7.99988866 0.285500832,7.99988866 L0.285500832,7.99988866 Z" id="Combined-Shape" stroke="#E535AB" fill="#E535AB"></path>
                <path d="M3.14300042,1.14298484 L8.85699958,1.14298484 C9.01467686,1.14298484 9.14249954,1.27080575 9.14249954,1.42848084 L9.14249954,1.42848084 C9.14249954,1.58615592 9.01467686,1.71397683 8.85699958,1.71397683 L3.14300042,1.71397683 C2.98532314,1.71397683 2.85750046,1.58615592 2.85750046,1.42848084 L2.85750046,1.42848084 C2.85750046,1.27080575 2.98532314,1.14298484 3.14300042,1.14298484 Z M2.5715005,10.2853566 L3.14300042,10.2853566 C3.30067769,10.2853566 3.42850037,10.4131775 3.42850037,10.5708526 L3.42850037,10.5708526 C3.42850037,10.6465708 3.398421,10.7191879 3.34487937,10.7727288 C3.29133774,10.8262696 3.21871971,10.8563486 3.14300042,10.8563486 L2.5715005,10.8563486 C2.4957812,10.8563486 2.42316317,10.8262696 2.36962154,10.7727288 C2.31607991,10.7191879 2.28600054,10.6465708 2.28600054,10.5708526 L2.28600054,10.5708526 C2.28600054,10.4131775 2.41382323,10.2853566 2.5715005,10.2853566 Z M0.285500832,3.42845278 L1.42850067,3.42845278 C1.58617794,3.42845278 1.71400106,3.5562737 1.71400106,3.71394878 L1.71400106,3.71394878 C1.71413338,3.78975362 1.68411263,3.86249916 1.63055661,3.91614823 C1.57700058,3.9697973 1.50430667,3.99994477 1.42850067,3.99994477 L0.285500832,3.99994477 C0.127823559,3.99994477 4.355732e-07,3.87212386 4.355732e-07,3.71444877 L4.355732e-07,3.71444877 C-0.000131886051,3.63864393 0.0298888689,3.5658984 0.0834448933,3.51224932 C0.137000918,3.45860025 0.209694825,3.42845278 0.285500832,3.42845278 Z M2.00000058,5.71442072 L3.71450062,5.71442072 C3.87217761,5.71442072 4.00000029,5.84224163 4.00000029,5.99991672 L4.00000029,5.99991672 C4.00000029,6.1575918 3.87217761,6.28541271 3.71450062,6.28541271 L2.00000058,6.28541271 C1.84232331,6.28541271 1.71450062,6.1575918 1.71450062,5.99991672 L1.71450062,5.99991672 C1.71450062,5.84224163 1.84232331,5.71442072 2.00000058,5.71442072 L2.00000058,5.71442072 Z M2.00000058,7.99988866 L7.14299983,7.99988866 C7.21871913,7.99988866 7.29133716,8.02996762 7.34487879,8.0835085 C7.39842042,8.13704939 7.42849979,8.20966641 7.42849979,8.28538466 L7.42849979,8.28538466 C7.42849979,8.44305974 7.30067711,8.57088065 7.14299983,8.57088065 L2.00000058,8.57088065 C1.84232331,8.57088065 1.71450062,8.44305974 1.71450062,8.28538466 L1.71450062,8.28538466 C1.71450062,8.20966641 1.74458,8.13704939 1.79812163,8.0835085 C1.85166325,8.02996762 1.92428129,7.99988866 2.00000058,7.99988866 L2.00000058,7.99988866 Z M7.14299983,4.57143675 L9.99999942,4.57143675 C10.1576767,4.57143675 10.2854994,4.69925766 10.2854994,4.85693275 L10.2854994,4.85693275 C10.2854994,5.01460783 10.1576767,5.14242874 9.99999942,5.14242874 L7.14299983,5.14242874 C6.98532256,5.14242874 6.85749988,5.01460783 6.85749988,4.85693275 L6.85749988,4.85693275 C6.85749988,4.69925766 6.98532256,4.57143675 7.14299983,4.57143675 L7.14299983,4.57143675 Z" id="Combined-Shape" stroke="#E6A045" fill="#E6A045"></path>
            </g>
        </g>
    </g>
</svg>