<?xml version="1.0" encoding="UTF-8"?>
<svg width="16px" height="16px" viewBox="0 0 16 16" version="1.1" xmlns="http://www.w3.org/2000/svg" xmlns:xlink="http://www.w3.org/1999/xlink">
    <title>file_type_json</title>
    <g id="file_type_json" stroke="none" fill="none" fill-rule="evenodd" stroke-width="1">
        <g id="{;}" transform="translate(0.5, -0.5)" fill="#92BD79">
            <path d="M5.276,14.989 C5.03333333,14.989 4.79066667,14.9673333 4.548,14.924 C4.30533333,14.8806667 4.07566667,14.807 3.859,14.703 C3.64233333,14.599 3.44516667,14.4625 3.2675,14.2935 C3.08983333,14.1245 2.94466667,13.9338333 2.832,13.7215 C2.71933333,13.5091667 2.63916667,13.2838333 2.5915,13.0455 C2.54383333,12.8071667 2.52,12.5666667 2.52,12.324 L2.52,10.673 C2.52,10.4736667 2.494,10.2765 2.442,10.0815 C2.39,9.8865 2.29683333,9.71533333 2.1625,9.568 C2.02816667,9.42066667 1.8635,9.3145 1.6685,9.2495 C1.4735,9.1845 1.27633333,9.152 1.077,9.152 L1.077,8.008 C1.27633333,8.008 1.4735,7.9755 1.6685,7.9105 C1.8635,7.8455 2.02816667,7.73933333 2.1625,7.592 C2.29683333,7.44466667 2.39,7.2735 2.442,7.0785 C2.494,6.8835 2.52,6.68633333 2.52,6.487 L2.52,4.836 C2.52,4.59333333 2.54383333,4.35283333 2.5915,4.1145 C2.63916667,3.87616667 2.71933333,3.65083333 2.832,3.4385 C2.94466667,3.22616667 3.08983333,3.0355 3.2675,2.8665 C3.44516667,2.6975 3.64233333,2.561 3.859,2.457 C4.07566667,2.353 4.30533333,2.27933333 4.548,2.236 C4.79066667,2.19266667 5.03333333,2.171 5.276,2.171 L5.276,3.315 C5.07666667,3.315 4.8795,3.3475 4.6845,3.4125 C4.4895,3.4775 4.32483333,3.58366667 4.1905,3.731 C4.05616667,3.87833333 3.963,4.0495 3.911,4.2445 C3.859,4.4395 3.833,4.63666667 3.833,4.836 L3.833,6.487 C3.833,6.68633333 3.82,6.88133333 3.794,7.072 C3.768,7.26266667 3.71816667,7.449 3.6445,7.631 C3.57083333,7.813 3.47766667,7.98633333 3.365,8.151 C3.25233333,8.31566667 3.118,8.45866667 2.962,8.58 C3.118,8.70133333 3.25233333,8.84433333 3.365,9.009 C3.47766667,9.17366667 3.57083333,9.347 3.6445,9.529 C3.71816667,9.711 3.768,9.89733333 3.794,10.088 C3.82,10.2786667 3.833,10.4736667 3.833,10.673 L3.833,12.324 C3.833,12.5233333 3.859,12.7205 3.911,12.9155 C3.963,13.1105 4.05616667,13.2816667 4.1905,13.429 C4.32483333,13.5763333 4.4895,13.6825 4.6845,13.7475 C4.8795,13.8125 5.07666667,13.845 5.276,13.845 L5.276,14.989 Z" id="Path" fill-rule="nonzero"></path>
            <path d="M7.054,15.795 L6.157,15.028 C6.45166667,14.7593333 6.72683333,14.4646667 6.9825,14.144 C7.23816667,13.8233333 7.43966667,13.4766667 7.587,13.104 C7.431,13.104 7.275,13.0801667 7.119,13.0325 C6.963,12.9848333 6.82866667,12.9025 6.716,12.7855 C6.60333333,12.6685 6.52316667,12.532 6.4755,12.376 C6.42783333,12.22 6.404,12.064 6.404,11.908 C6.404,11.752 6.42783333,11.5938333 6.4755,11.4335 C6.52316667,11.2731667 6.60333333,11.1366667 6.716,11.024 C6.82866667,10.9113333 6.96516667,10.8311667 7.1255,10.7835 C7.28583333,10.7358333 7.444,10.712 7.6,10.712 C7.76466667,10.712 7.92716667,10.738 8.0875,10.79 C8.24783333,10.842 8.38433333,10.9265 8.497,11.0435 C8.60966667,11.1605 8.68766667,11.2991667 8.731,11.4595 C8.77433333,11.6198333 8.796,11.7823333 8.796,11.947 C8.796,12.3023333 8.7505,12.6555 8.6595,13.0065 C8.5685,13.3575 8.44283333,13.6955 8.2825,14.0205 C8.12216667,14.3455 7.938,14.6553333 7.73,14.95 C7.522,15.2446667 7.29666667,15.5263333 7.054,15.795 Z M7.6,8.528 C7.444,8.528 7.28583333,8.50416667 7.1255,8.4565 C6.96516667,8.40883333 6.82866667,8.32866667 6.716,8.216 C6.60333333,8.10333333 6.52316667,7.96683333 6.4755,7.8065 C6.42783333,7.64616667 6.404,7.488 6.404,7.332 C6.404,7.16733333 6.42783333,7.007 6.4755,6.851 C6.52316667,6.695 6.60333333,6.56066667 6.716,6.448 C6.82866667,6.33533333 6.96516667,6.25516667 7.1255,6.2075 C7.28583333,6.15983333 7.444,6.136 7.6,6.136 C7.756,6.136 7.91416667,6.15983333 8.0745,6.2075 C8.23483333,6.25516667 8.37133333,6.33533333 8.484,6.448 C8.59666667,6.56066667 8.67683333,6.695 8.7245,6.851 C8.77216667,7.007 8.796,7.16733333 8.796,7.332 C8.796,7.488 8.77216667,7.64616667 8.7245,7.8065 C8.67683333,7.96683333 8.59666667,8.10333333 8.484,8.216 C8.37133333,8.32866667 8.23483333,8.40883333 8.0745,8.4565 C7.91416667,8.50416667 7.756,8.528 7.6,8.528 Z" id="Shape" fill-rule="nonzero"></path>
            <path d="M9.924,14.989 L9.924,13.845 C10.1233333,13.845 10.3205,13.8125 10.5155,13.7475 C10.7105,13.6825 10.8751667,13.5763333 11.0095,13.429 C11.1438333,13.2816667 11.237,13.1105 11.289,12.9155 C11.341,12.7205 11.367,12.5233333 11.367,12.324 L11.367,10.673 C11.367,10.4736667 11.38,10.2786667 11.406,10.088 C11.432,9.89733333 11.4818333,9.711 11.5555,9.529 C11.6291667,9.347 11.7223333,9.17366667 11.835,9.009 C11.9476667,8.84433333 12.082,8.70133333 12.238,8.58 C12.082,8.45866667 11.9476667,8.31566667 11.835,8.151 C11.7223333,7.98633333 11.6291667,7.813 11.5555,7.631 C11.4818333,7.449 11.432,7.26266667 11.406,7.072 C11.38,6.88133333 11.367,6.68633333 11.367,6.487 L11.367,4.836 C11.367,4.63666667 11.341,4.4395 11.289,4.2445 C11.237,4.0495 11.1438333,3.87833333 11.0095,3.731 C10.8751667,3.58366667 10.7105,3.4775 10.5155,3.4125 C10.3205,3.3475 10.1233333,3.315 9.924,3.315 L9.924,2.171 C10.1666667,2.171 10.4093333,2.19266667 10.652,2.236 C10.8946667,2.27933333 11.1243333,2.353 11.341,2.457 C11.5576667,2.561 11.7548333,2.6975 11.9325,2.8665 C12.1101667,3.0355 12.2553333,3.22616667 12.368,3.4385 C12.4806667,3.65083333 12.5608333,3.87616667 12.6085,4.1145 C12.6561667,4.35283333 12.68,4.59333333 12.68,4.836 L12.68,6.487 C12.68,6.68633333 12.706,6.8835 12.758,7.0785 C12.81,7.2735 12.9031667,7.44466667 13.0375,7.592 C13.1718333,7.73933333 13.3365,7.8455 13.5315,7.9105 C13.7265,7.9755 13.9236667,8.008 14.123,8.008 L14.123,9.152 C13.9236667,9.152 13.7265,9.1845 13.5315,9.2495 C13.3365,9.3145 13.1718333,9.42066667 13.0375,9.568 C12.9031667,9.71533333 12.81,9.8865 12.758,10.0815 C12.706,10.2765 12.68,10.4736667 12.68,10.673 L12.68,12.324 C12.68,12.5666667 12.6561667,12.8071667 12.6085,13.0455 C12.5608333,13.2838333 12.4806667,13.5091667 12.368,13.7215 C12.2553333,13.9338333 12.1101667,14.1245 11.9325,14.2935 C11.7548333,14.4625 11.5576667,14.599 11.341,14.703 C11.1243333,14.807 10.8946667,14.8806667 10.652,14.924 C10.4093333,14.9673333 10.1666667,14.989 9.924,14.989 Z" id="Path" fill-rule="nonzero"></path>
        </g>
    </g>
</svg>