<?xml version="1.0" encoding="UTF-8"?>
<svg width="16px" height="16px" viewBox="0 0 16 16" version="1.1" xmlns="http://www.w3.org/2000/svg" xmlns:xlink="http://www.w3.org/1999/xlink">
    <title>file_type_java</title>
    <g id="file_type_java" stroke="none" fill="none" fill-rule="evenodd" stroke-width="1">
        <g id="Group" transform="translate(2.84, 1)" fill="#D83D3C" stroke="#D83D3C">
            <path d="M3.84495937,14.0054165 L3.844522,14.0049499 C3.24604347,13.9710087 2.77753006,13.9109444 2.4229154,13.8320578 C2.07463904,13.7545812 1.89460848,13.6755366 1.86912453,13.531674 C3.6101957,13.816665 6.25842249,13.8030896 8.23383884,13.4382242 C8.59450429,13.3715578 8.90817236,13.2978325 9.17793389,13.2182725 C9.92369122,12.9983285 10.2239121,12.7833115 10.3731094,12.6731527 C10.2888986,13.7508922 7.15070236,14.2196883 3.84495937,14.0054165 Z M2.26409013,11.8809445 L2.23555158,11.9719999 C2.157248,11.9719999 2.00296141,11.9890836 1.77513832,12.0414016 C1.60111793,12.0685844 1.30385681,12.1619808 1.12197989,12.2556922 C1.01826887,12.3091289 0.953130019,12.3612909 0.937121164,12.4016629 C0.924599685,12.4332402 0.948919826,12.4665221 1.04355309,12.5070076 C2.33726801,13.0679133 7.27549929,13.0146242 8.98037701,12.5050669 C9.304347,12.4060058 9.45535482,12.2940529 9.47946961,12.1847261 C9.49304146,12.1231968 9.46445695,12.0643258 9.4102648,12.005777 C9.40801868,12.0038107 9.40538786,12.0008138 9.40221676,11.9972015 C9.4049798,12.0000592 9.40768386,12.0029174 9.4102648,12.005777 C9.42125662,12.0154995 9.42333951,12.0013606 9.43556453,11.9183754 L9.47085589,11.9297838 C9.47376203,11.932201 9.47376203,11.932201 9.4687084,11.9307608 C9.8481447,12.1082525 9.84260676,12.360734 9.48089459,12.5863114 C9.14612294,12.7950877 8.51340996,12.9902327 7.69248233,13.1341693 C5.76176249,13.4726903 3.20828934,13.4812951 0.684978176,13.0695032 C0.185184616,12.9891965 -0.0593956611,12.8522901 -0.0497427779,12.6556229 C-0.0416870134,12.4914952 0.153674363,12.3220224 0.477706341,12.1633331 C1.11440696,11.8515194 1.99183255,11.6916922 2.26409013,11.8809445 Z M3.36316784,10.8661466 C3.34613482,10.8765049 3.3191579,10.8958424 3.29249649,10.9207493 C3.24585983,10.9643169 3.22360338,11.0049867 3.23099775,11.0338178 C3.24774247,11.0991065 3.39580618,11.1616657 3.71635962,11.1945666 L3.71757787,11.1947068 C4.81127472,11.3341422 5.39101399,11.310842 6.63583464,11.0848518 C6.87731747,11.2327337 7.13271262,11.3565924 7.40069812,11.5475328 C6.16666307,12.0751074 4.63299817,12.1630657 3.5145806,11.8773652 C3.02703392,11.7528211 2.70136061,11.570257 2.62963723,11.3669675 C2.54682604,11.1322512 2.78988209,10.9260928 3.33675062,10.7734259 Z M3.03718446,9.30397249 L3.03718446,9.30441 L3.00440107,9.35135239 L3.01670898,9.34434812 C2.94721548,9.39811973 2.87279621,9.47985701 2.85584667,9.55615097 C2.83121184,9.66703834 2.9532314,9.75457317 3.31931362,9.79234143 C4.71701936,9.92929094 5.60365368,9.89826248 7.09070545,9.62018312 C7.2421249,9.77374975 7.42751469,9.88958221 7.6302558,10.0536494 C6.12376573,10.5023571 4.36690097,10.5987446 3.17138354,10.3705462 C2.62693888,10.2666235 2.27776829,10.1052078 2.20416499,9.9049334 C2.11970569,9.6751199 2.38455963,9.45477218 2.95539525,9.26535062 C2.95649747,9.26449483 2.95649747,9.26449483 3.03718446,9.30397249 Z M10.3572559,8.43135539 C10.4766429,9.20601581 9.700051,9.96829257 8.11375068,10.3805011 L8.06582021,10.2967529 C8.07384475,10.2887284 8.08817455,10.2696518 8.14798854,10.2121075 L8.12586415,10.2177113 C9.27903313,9.62031424 9.76978064,8.98757783 9.6774459,8.45017237 C9.60425906,8.02421129 9.13684678,7.72902374 8.72062324,7.80969599 C8.56704725,7.84393064 8.47134388,7.87768974 8.36095738,7.83215912 C8.376125,7.80182388 8.40606432,7.75908016 8.45287509,7.71657566 C8.50144295,7.67247571 8.5588948,7.63870471 8.62269899,7.62054391 C9.4420417,7.33202471 10.2503319,7.73756336 10.3572559,8.43135539 Z M3.59044535,7.66487643 L3.59101939,7.67158412 C3.59938468,7.67534305 3.61282945,7.68156257 3.63478713,7.69172015 L3.63522464,7.69259516 L3.5977024,7.74967689 L3.5988759,7.76338967 C3.266737,7.84313064 2.83940746,7.96499533 2.5237939,8.09716973 C2.30767779,8.18767604 2.18289698,8.2725187 2.18010881,8.3218114 C2.17724558,8.37243096 2.33438989,8.4376653 2.68492251,8.48265409 C3.3470516,8.57104812 4.67816796,8.55791614 6.04003311,8.4592236 C6.04133983,8.45910725 6.04133983,8.45910725 6.04264655,8.45899076 C6.36157297,8.43055383 6.69989568,8.39192638 7.04797753,8.34564801 C7.32095585,8.30935485 7.58430744,8.27046679 7.82821477,8.2315811 C7.97450616,8.20825813 8.08175267,8.19012852 8.16890168,8.27483282 C8.06146582,8.32182816 7.89967935,8.39821156 7.7382373,8.48563573 C7.66606943,8.52471611 7.60087443,8.56253192 7.53018877,8.60465195 C6.32421061,8.9198739 4.47687462,9.04745339 2.93305485,8.95986465 C2.21747139,8.91926596 1.65263284,8.83458435 1.34602922,8.71813072 C0.981305285,8.57960193 0.967975683,8.37085574 1.34805971,8.18396379 C2.25701599,7.74682715 3.07046892,7.6310909 3.59044535,7.66487643 Z" id="Shape" stroke-width="0.1" fill-rule="nonzero"></path>
            <path d="M8.34578483,2.9185918 C6.4060946,4.03739686 5.86776256,4.66640745 6.09724168,5.32186266 C6.17012795,5.53004582 6.16319591,5.51924145 6.60889807,6.16626318 L6.60823466,6.16532345 C7.02878928,6.74673963 6.8242611,7.31549572 6.23747266,7.82461151 C6.01949203,8.01373824 5.80185753,8.15117002 5.60128426,8.14293571 C5.65402957,8.10016852 5.73482793,8.01987852 5.81568811,7.90995105 C6.09099339,7.53568012 6.12923733,7.13705786 5.78051745,6.74033222 L5.5848118,6.4951685 C4.66408176,5.2320221 5.2380049,4.20861402 6.73703018,3.43025352 C7.08090971,3.25169599 7.44898727,3.10039301 7.81702407,2.97565001 C8.03790721,2.90078351 8.20991851,2.85134289 8.34578483,2.9185918 Z M6.79328603,0.247975648 C7.28126021,1.17780851 6.95143565,2.36954129 5.21520986,3.73274038 L5.21541773,3.73257628 C3.79499426,4.86003569 3.81420592,5.54509515 4.72434279,6.84741424 C4.84795796,7.02429576 4.86837439,7.05371389 4.9192899,7.12947649 C5.0598805,7.33867619 5.15755605,7.50579214 5.15099524,7.7281574 C3.4498159,6.20625533 2.91494928,5.32431169 3.50635084,4.43760548 C3.76683595,4.04342847 4.08975242,3.74357955 4.77991555,3.1980256 C4.83923488,3.15116865 4.83923488,3.15116865 4.89859469,3.1043055 C6.37919186,1.93490189 6.82927886,1.25929226 6.5989817,-0.0350736789 C6.64863861,0.0153776207 6.72119702,0.110610322 6.79328603,0.247975648 Z" id="Shape" stroke-width="0.1" fill-rule="nonzero"></path>
        </g>
    </g>
</svg>