<?xml version="1.0" encoding="UTF-8"?>
<svg width="16px" height="16px" viewBox="0 0 16 16" version="1.1" xmlns="http://www.w3.org/2000/svg" xmlns:xlink="http://www.w3.org/1999/xlink">
    <title>file_type_dart</title>
    <g id="file_type_dart" stroke="none" fill="none" fill-rule="evenodd" stroke-width="1">
        <g id="Group" transform="translate(0, -0)">
            <path d="M4.07721578,4.06742291 L3.10015156,3.09924109 L3.10015156,10.0810593 L3.11391303,10.408332 C3.11391303,10.558332 3.14143597,10.7356047 3.19648184,10.9128775 L10.9304268,13.6128775 L12.8570323,12.7674229 L12.8570323,12.7674229 L4.07721578,4.06742291 Z" id="path2" fill="#02B9FC"></path>
            <path d="M12.8570323,12.7674229 L10.9304268,13.6128775 L3.21024331,10.9128775 C3.36161945,11.4719684 3.67813321,12.0992411 4.03593138,12.4537865 L6.55428,14.9356047 L12.1689589,14.9492411 L12.8570323,12.7674229 Z" id="path4" fill="#04C7FF" fill-rule="nonzero"></path>
            <path d="M3.1276745,3.09924109 L0.127674498,7.59924109 C-0.120031924,7.858332 0.00382128683,8.40378655 0.402903856,8.81287746 L2.13684881,10.5446956 L3.22400477,10.9265138 C3.18272037,10.7492411 3.14143597,10.5719684 3.14143597,10.4219684 L3.1276745,10.0946956 L3.1276745,3.09924109 Z" id="path6" fill="#005AA0"></path>
            <path d="M10.9854727,3.18105928 C10.8065736,3.14015018 10.6276745,3.11287746 10.4762984,3.09924109 L10.1322617,3.08560473 L3.10015156,3.08560473 L12.8570323,12.7537865 L13.7102433,10.8446956 L10.9854727,3.18105928 Z" id="path8" fill="#005AA0"></path>
            <path d="M12.5405185,3.99924109 C12.1827204,3.64469564 11.5634543,3.31742291 10.9854727,3.18105928 L13.7102433,10.8446956 L12.8570323,12.7537865 L14.9487754,12.0856047 L14.9487754,6.39924109 L12.5405185,3.99924109 Z" id="path10" fill="#00A8E1" fill-rule="nonzero"></path>
            <path d="M10.6001516,2.11742291 L8.85244514,0.399241093 C8.45336257,0.00378654786 7.90290386,-0.118940725 7.6276745,0.126513821 L3.08639009,3.09924109 L10.1185002,3.09924109 L10.4625369,3.11287746 C10.613913,3.11287746 10.7928121,3.14015018 10.9717112,3.19469564 L10.6001516,2.11742291 Z" id="path12" fill="#04C7FF"></path>
        </g>
    </g>
</svg>