<?xml version="1.0" encoding="UTF-8"?>
<svg width="16px" height="16px" viewBox="0 0 16 16" version="1.1" xmlns="http://www.w3.org/2000/svg" xmlns:xlink="http://www.w3.org/1999/xlink">
    <title>file_type_font</title>
    <g id="file_type_font" stroke="none" fill="none" fill-rule="evenodd" stroke-width="1">
        <g id="A" transform="translate(2, -2.5)" fill="#97927C">
            <path d="M7.04370117,11.9907227 L5.41674805,8.05615234 L5.27563477,8.05615234 L3.73999023,11.9907227 L7.04370117,11.9907227 Z M0.668701172,15.5683594 C1.07820638,15.5406901 1.4074707,15.355306 1.65649414,15.012207 C1.81697591,14.7963867 2.04663086,14.3204753 2.34545898,13.5844727 L6.12231445,4.27929688 L6.59545898,4.27929688 L10.388916,13.2109375 C10.8150228,14.2125651 11.1332194,14.8586426 11.3435059,15.1491699 C11.5537923,15.4396973 11.8526204,15.5794271 12.2399902,15.5683594 L12.2399902,16 L6.73657227,16 L6.73657227,15.5683594 C7.28995768,15.546224 7.65380859,15.4991862 7.828125,15.4272461 C8.00244141,15.355306 8.08959961,15.1726888 8.08959961,14.8793945 C8.08959961,14.746582 8.04532878,14.5445964 7.95678711,14.2734375 C7.90144857,14.1129557 7.82674154,13.9192708 7.73266602,13.6923828 L7.30102539,12.6630859 L3.48266602,12.6630859 C3.23364258,13.3382161 3.07316081,13.7781576 3.0012207,13.9829102 C2.85180664,14.4200846 2.77709961,14.7382812 2.77709961,14.9375 C2.77709961,15.1809896 2.94034831,15.3580729 3.2668457,15.46875 C3.4605306,15.5296224 3.75105794,15.5628255 4.13842773,15.5683594 L4.13842773,16 L0.668701172,16 L0.668701172,15.5683594 Z" id="Shape" fill-rule="nonzero"></path>
        </g>
    </g>
</svg>