<?xml version="1.0" encoding="UTF-8"?>
<svg width="16px" height="16px" viewBox="0 0 16 16" version="1.1" xmlns="http://www.w3.org/2000/svg" xmlns:xlink="http://www.w3.org/1999/xlink">
    <title>file_type_license</title>
    <g id="file_type_license" stroke="none" fill="none" fill-rule="evenodd" stroke-width="1">
        <g id="©" transform="translate(1, -4.2)" fill="#D9A357">
            <path d="M2.2175293,17.0239258 C0.900146484,15.706543 0.241455078,14.0861003 0.241455078,12.1625977 C0.241455078,10.1648763 0.952718099,8.50423177 2.37524414,7.18066406 C3.71118164,5.9436849 5.27905273,5.32519531 7.07885742,5.32519531 C8.96525065,5.32519531 10.576416,5.99316406 11.9123535,7.32910156 C13.248291,8.66503906 13.9162598,10.2762044 13.9162598,12.1625977 C13.9162598,14.1046549 13.2328288,15.7405599 11.8659668,17.0703125 C10.5362142,18.3567708 8.94051107,19 7.07885742,19 C5.15535482,19 3.53491211,18.3413086 2.2175293,17.0239258 Z M3.06176758,8.20117188 C1.97322591,9.31445312 1.42895508,10.6349284 1.42895508,12.1625977 C1.42895508,13.745931 1.98250326,15.0911458 3.08959961,16.1982422 C4.19051107,17.3053385 5.52026367,17.8588867 7.07885742,17.8588867 C8.63126628,17.8588867 9.95792643,17.3022461 11.0588379,16.1889648 C12.1597493,15.0694987 12.7102051,13.7273763 12.7102051,12.1625977 C12.7102051,10.6411133 12.1628418,9.32063802 11.0681152,8.20117188 C9.96101888,7.06315104 8.63126628,6.49414062 7.07885742,6.49414062 C5.50789388,6.49414062 4.16886393,7.06315104 3.06176758,8.20117188 Z M4.39770508,9.30517578 C5.04711914,8.51350911 5.94083659,8.11767578 7.07885742,8.11767578 C7.80249023,8.11767578 8.43025716,8.26611328 8.9621582,8.56298828 C9.82804362,9.04541016 10.3661296,9.88964844 10.576416,11.0957031 L8.83227539,11.0678711 C8.72713216,10.5112305 8.50447591,10.1370443 8.16430664,9.9453125 C7.87980143,9.76595052 7.56746419,9.67626953 7.22729492,9.67626953 C6.71394857,9.67626953 6.29337565,9.88810221 5.96557617,10.3117676 C5.63777669,10.7354329 5.47387695,11.3740234 5.47387695,12.2275391 C5.47387695,13.0748698 5.65478516,13.6902669 6.01660156,14.0737305 C6.37841797,14.457194 6.8129069,14.6489258 7.32006836,14.6489258 C7.78393555,14.6489258 8.13492839,14.5221354 8.37304688,14.2685547 C8.61116536,14.014974 8.76424154,13.6964518 8.83227539,13.3129883 L10.5300293,13.3129883 C10.3444824,14.3891602 9.92545573,15.1421712 9.27294922,15.5720215 C8.62044271,16.0018717 7.94474284,16.2167969 7.24584961,16.2167969 C6.20678711,16.2167969 5.30843099,15.8457031 4.55078125,15.1035156 C3.79313151,14.3613281 3.41430664,13.387207 3.41430664,12.1811523 C3.41430664,11.0555013 3.74210612,10.0968424 4.39770508,9.30517578 Z" id="Shape" fill-rule="nonzero"></path>
        </g>
    </g>
</svg>