<?xml version="1.0" encoding="UTF-8"?>
<svg width="16px" height="16px" viewBox="0 0 16 16" version="1.1" xmlns="http://www.w3.org/2000/svg" xmlns:xlink="http://www.w3.org/1999/xlink">
    <title>file_type_rust</title>
    <g id="file_type_rust" stroke="none" fill="none" fill-rule="evenodd" stroke-width="1">
        <g id="Group" transform="translate(0.75, 0.75)" fill="#C86B67">
            <path d="M8.42325849,-0.157662554 L9.26633589,1.04435623 L10.6549287,0.567451069 L11.0852988,1.97116411 L12.5533009,1.94669914 L12.5288359,3.41470123 L13.9325489,3.84507125 L13.4556438,5.23366411 L14.6576626,6.07674151 L13.775,7.25 L14.6576626,8.42325849 L13.4556438,9.26633589 L13.9325489,10.6549287 L12.5288359,11.0852988 L12.5533009,12.5533009 L11.0852988,12.5288359 L10.6549287,13.9325489 L9.26633589,13.4556438 L8.42325849,14.6576626 L7.25,13.775 L6.07674151,14.6576626 L5.23366411,13.4556438 L3.84507125,13.9325489 L3.41470123,12.5288359 L1.94669914,12.5533009 L1.97116411,11.0852988 L0.567451069,10.6549287 L1.04435623,9.26633589 L-0.157662554,8.42325849 L0.725,7.25 L-0.157662554,6.07674151 L1.04435623,5.23366411 L0.567451069,3.84507125 L1.97116411,3.41470123 L1.94669914,1.94669914 L3.41470123,1.97116411 L3.84507125,0.567451069 L5.23366411,1.04435623 L6.07674151,-0.157662554 L7.25,0.725 L8.42325849,-0.157662554 Z M7.25,2 C4.35050506,2 2,4.35050506 2,7.25 C2,10.1494949 4.35050506,12.5 7.25,12.5 C10.1494949,12.5 12.5,10.1494949 12.5,7.25 C12.5,4.35050506 10.1494949,2 7.25,2 Z" id="Combined-Shape"></path>
            <path d="M6.02791667,5.23958333 L7.78833333,5.23958333 C8.87166667,5.23958333 8.87166667,6.32291667 7.78833333,6.32291667 L6.02791667,6.32291667 L6.02791667,5.23958333 Z M1.83,10.25 L7.24666667,10.25 L7.24666667,8.76041667 L6.02791667,8.76041667 L6.02791667,7.67708333 L7.38208333,7.67708333 C8.87166667,7.67708333 8.05916667,10.25 9.27791667,10.25 L12.6633333,10.25 L12.6633333,7.67708333 L11.8508333,7.67708333 L11.8508333,7.94791667 C11.8508333,9.03125 10.6320833,8.89583333 10.4966667,8.21875 C10.36125,7.54166667 9.81958333,7 9.68416667,7 C11.7154167,5.91666667 10.4966667,3.75 8.87166667,3.75 L2.50708333,3.75 L2.50708333,5.23958333 L3.86125,5.23958333 L3.86125,8.76041667 L1.83,8.76041667 L1.83,10.25 Z" id="r" fill-rule="nonzero"></path>
        </g>
    </g>
</svg>