<?xml version="1.0" encoding="UTF-8"?>
<svg width="16px" height="16px" viewBox="0 0 16 16" version="1.1" xmlns="http://www.w3.org/2000/svg" xmlns:xlink="http://www.w3.org/1999/xlink">
    <title>file_type_cargo</title>
    <g id="file_type_cargo" stroke="none" fill="none" fill-rule="evenodd" stroke-width="0.5">
        <path d="M8.8228753,8.5 C8.64464691,8.50021882 8.50021882,8.64464691 8.5,8.8228753 L8.5,13.1771247 C8.50021882,13.3553531 8.64464691,13.4997812 8.8228753,13.5 L13.1771247,13.5 C13.3553531,13.4997812 13.4997812,13.3553531 13.5,13.1771247 L13.5,8.8228753 C13.4997812,8.64464691 13.3553531,8.50021882 13.1771247,8.5 L8.8228753,8.5 Z" id="file_type_js.svg-path" stroke="#E8B44E" fill="#E8B44E"></path>
        <path d="M8.8228753,2.5 C8.64464691,2.50021882 8.50021882,2.64464691 8.5,2.8228753 L8.5,7.1771247 C8.50021882,7.35535309 8.64464691,7.49978118 8.8228753,7.5 L13.1771247,7.5 C13.3553531,7.49978118 13.4997812,7.35535309 13.5,7.1771247 L13.5,2.8228753 C13.4997812,2.64464691 13.3553531,2.50021882 13.1771247,2.5 L8.8228753,2.5 Z" id="file_type_js.svg-path-copy-2" stroke="#E8B44E" fill="#E8B44E"></path>
        <path d="M2.8228753,8.5 C2.64464691,8.50021882 2.50021882,8.64464691 2.5,8.8228753 L2.5,13.1771247 C2.50021882,13.3553531 2.64464691,13.4997812 2.8228753,13.5 L7.1771247,13.5 C7.35535309,13.4997812 7.49978118,13.3553531 7.5,13.1771247 L7.5,8.8228753 C7.49978118,8.64464691 7.35535309,8.50021882 7.1771247,8.5 L2.8228753,8.5 Z" id="file_type_js.svg-path-copy" stroke="#E8B44E" fill="#E8B44E"></path>
    </g>
</svg>