<?xml version="1.0" encoding="UTF-8"?>
<svg width="16px" height="16px" viewBox="0 0 16 16" version="1.1" xmlns="http://www.w3.org/2000/svg" xmlns:xlink="http://www.w3.org/1999/xlink">
    <title>file_type_go</title>
    <g id="file_type_go" stroke="none" fill="none" fill-rule="evenodd" stroke-width="1">
        <g id="Layer_1" transform="translate(-4.0618, 4.25)" fill="#00ACD7">
            <path d="M1.50827574,2.28893802 C1.48055733,2.28893802 1.45283891,2.26121961 1.48055733,2.23350119 L1.67458623,1.95631705 C1.70230464,1.92859863 1.73002306,1.90088022 1.78545989,1.90088022 L5.27798015,1.90088022 C5.30569856,1.90088022 5.33341698,1.92859863 5.30569856,1.95631705 L5.13938808,2.20578278 C5.11166966,2.23350119 5.08395125,2.26121961 5.02851442,2.26121961 L1.50827574,2.28893802 Z" id="-path" fill-rule="nonzero"></path>
            <path d="M0.0391997581,3.6 C0.0114813433,3.6 -0.0162370714,3.56428571 0.0114813433,3.52857143 L0.205510247,3.17142857 C0.233228661,3.13571429 0.260947076,3.1 0.316383906,3.1 L4.77904868,3.1 C4.8067671,3.1 4.83448551,3.13571429 4.83448551,3.17142857 L4.75133027,3.52857143 C4.75133027,3.56428571 4.69589344,3.6 4.66817502,3.6 L0.0391997581,3.6 Z" id="-path" fill-rule="nonzero"></path>
            <path d="M2.39526501,5.16206356 C2.3675466,5.16206356 2.33982818,5.13434514 2.3675466,5.10662673 L2.50613867,4.85716099 C2.53385709,4.82944258 2.5615755,4.80172416 2.61701233,4.80172416 L4.55730137,4.80172416 C4.58501978,4.80172416 4.61273819,4.82944258 4.61273819,4.85716099 L4.58501978,5.07890831 C4.58501978,5.10662673 4.55730137,5.13434514 4.52958295,5.13434514 L2.39526501,5.16206356 L2.39526501,5.16206356 Z" id="-path" fill-rule="nonzero"></path>
            <path d="M12.5402048,2.09490912 L10.9048183,2.51068534 C10.7662263,2.53840376 10.7385079,2.56612217 10.6276342,2.39981168 C10.4890421,2.23350119 10.3781685,2.12262754 10.1564211,2.03947229 C9.54661602,1.73456973 8.9368109,1.81772497 8.3824426,2.17806436 C7.71720065,2.59384059 7.38457967,3.23136413 7.38457967,4.03519815 C7.38457967,4.81131377 7.93894797,5.44883731 8.71506358,5.55971097 C9.38030553,5.64286621 9.93467383,5.42111889 10.3781685,4.92218743 C10.4613237,4.81131377 10.544479,4.70044011 10.6553526,4.56184803 L8.77050041,4.56184803 C8.57647151,4.56184803 8.52103468,4.42325596 8.57647151,4.25694547 C8.71506358,3.95204291 8.9368109,3.45311144 9.07540297,3.20364571 C9.10312139,3.14820888 9.18627663,3.03733522 9.32486871,3.03733522 L12.8728258,3.03733522 C12.8451074,3.31451937 12.8451074,3.5639851 12.817389,3.84116925 C12.7065153,4.53412962 12.4570496,5.19937157 12.0135549,5.75373987 C11.3205946,6.66844756 10.4058869,7.25053427 9.24171346,7.41684476 C8.27156894,7.55543683 7.38457967,7.36140793 6.60846406,6.77932122 C5.88778527,6.22495292 5.47200905,5.50427414 5.36113539,4.61728486 C5.22254332,3.5639851 5.5551643,2.59384059 6.19268784,1.76228814 C6.88564821,0.847580456 7.80035589,0.265493746 8.9368109,0.0714648424 C9.85151859,-0.0948456462 10.7385079,0.0160280129 11.5146235,0.542677893 C12.0412734,0.875298871 12.4016127,1.34651192 12.6510785,1.92859863 C12.6787969,2.03947229 12.6510785,2.06719071 12.5402048,2.09490912 L12.5402048,2.09490912 Z" id="-path" fill-rule="nonzero"></path>
            <path d="M15.7555409,7.5 C14.8685517,7.47228159 14.0647176,7.22281585 13.3717573,6.64072914 C12.7896706,6.14179768 12.4293312,5.50427414 12.3184575,4.75587694 C12.152147,3.64714035 12.4570496,2.67699583 13.1222915,1.81772497 C13.8429703,0.875298871 14.7022412,0.40408582 15.8664146,0.182338501 C16.8642775,0.0160280129 17.8067036,0.0991832572 18.6382561,0.681269967 C19.4143717,1.20791985 19.8855847,1.92859863 20.0241768,2.87102473 C20.1904873,4.20150864 19.8024295,5.2548084 18.9154402,6.16951609 C18.2779167,6.83475805 17.4740826,7.22281585 16.5870934,7.41684476 C16.2821908,7.47228159 16.0050067,7.47228159 15.7555409,7.5 L15.7555409,7.5 Z M18.0838878,3.5639851 C18.0838878,3.42539303 18.0838878,3.34223778 18.0561694,3.23136413 C17.8898589,2.26121961 17.0028696,1.70685131 16.0604435,1.92859863 C15.1457358,2.12262754 14.5636491,2.70471425 14.3419018,3.61942193 C14.1755913,4.36781913 14.5359307,5.14393474 15.2288911,5.47655572 C15.7555409,5.69830304 16.3099092,5.67058463 16.8088407,5.42111889 C17.6126747,5.03306109 18.0284509,4.39553755 18.0838878,3.5639851 Z" id="Shape" fill-rule="nonzero"></path>
        </g>
    </g>
</svg>