<?xml version="1.0" encoding="UTF-8"?>
<svg width="16px" height="16px" viewBox="0 0 16 16" version="1.1" xmlns="http://www.w3.org/2000/svg" xmlns:xlink="http://www.w3.org/1999/xlink">
    <title>file_type_yaml</title>
    <g id="file_type_yaml" stroke="none" fill="none" fill-rule="evenodd">
        <path d="M13.482,15 L2.518,15 C1.67986033,14.9994484 1.00055159,14.3201397 1,13.482 L1,2.518 C1.00055159,1.67986033 1.67986033,1.00055159 2.518,1 L13.482,1 C14.3201397,1.00055159 14.9994484,1.67986033 15,2.518 L15,13.482 C14.9994484,14.3201397 14.3201397,14.9994484 13.482,15 Z M2.77490071,2 C2.34715259,2.00052517 2.00052517,2.34715259 2,2.77490071 L2,13.2250993 C2.00052517,13.6528474 2.34715259,13.9994748 2.77490071,14 L13.2250993,14 C13.6528474,13.9994748 13.9994748,13.6528474 14,13.2250993 L14,2.77490071 C13.9994748,2.34715259 13.6528474,2.00052517 13.2250993,2 L2.77490071,2 Z" id="Combined-Shape" fill="#E6B045"></path>
        <g id="Y" stroke-width="1" transform="translate(4.5, 0)" fill="#E6B045">
            <path d="M3.04299995,13 L3.04299995,9.282 L1.95099995,7.163 C1.69966662,6.67766667 1.50033329,6.1685 1.35299995,5.6355 C1.20566662,5.1025 1.13199995,4.563 1.13199995,4.017 L1.13199995,3.445 L2.14599995,3.445 L2.14599995,4.017 C2.14599995,4.49366667 2.20883329,4.96166667 2.33449995,5.421 C2.46016662,5.88033333 2.63133329,6.32233333 2.84799995,6.747 L3.54999995,8.099 L4.25199995,6.747 C4.46866662,6.32233333 4.63983329,5.88033333 4.76549995,5.421 C4.89116662,4.96166667 4.95399995,4.49366667 4.95399995,4.017 L4.95399995,3.445 L5.96799995,3.445 L5.96799995,4.017 C5.96799995,4.563 5.89433329,5.1025 5.74699995,5.6355 C5.59966662,6.1685 5.40033329,6.67766667 5.14899995,7.163 L4.05699995,9.282 L4.05699995,13 L3.04299995,13 Z" id="Path" fill-rule="nonzero"></path>
        </g>
    </g>
</svg>