<svg width="128" height="128" viewBox="0 0 128 128" fill="none" xmlns="http://www.w3.org/2000/svg">
<rect width="128" height="128" fill="#1C1D1F"/>
<path d="M27.3 70.6H18.732L17.508 76H12.54L18.552 50.8H27.48L33.492 76H28.524L27.3 70.6ZM19.74 66.064H26.256L23.34 53.176H22.692L19.74 66.064ZM48.947 58.144H53.483V80.392C53.483 81.208 53.219 81.88 52.691 82.408C52.187 82.936 51.527 83.2 50.711 83.2H40.091V78.88H47.975C48.623 78.88 48.947 78.52 48.947 77.8V73.408H48.299C47.507 75.472 45.803 76.504 43.187 76.504C42.299 76.504 41.471 76.36 40.703 76.072C39.935 75.784 39.263 75.34 38.687 74.74C38.111 74.14 37.655 73.396 37.319 72.508C37.007 71.596 36.851 70.528 36.851 69.304V58.144H41.387V68.368C41.387 69.64 41.687 70.636 42.287 71.356C42.887 72.052 43.787 72.4 44.987 72.4C46.355 72.4 47.351 71.968 47.975 71.104C48.623 70.216 48.947 69.016 48.947 67.504V58.144ZM70.9899 58.144H75.5259V76H70.9899V73.408H70.3419C69.5499 75.472 67.8459 76.504 65.2299 76.504C64.3419 76.504 63.5139 76.36 62.7459 76.072C61.9779 75.784 61.3059 75.34 60.7299 74.74C60.1539 74.14 59.6979 73.396 59.3619 72.508C59.0499 71.596 58.8939 70.528 58.8939 69.304V58.144H63.4299V68.368C63.4299 69.64 63.7299 70.636 64.3299 71.356C64.9299 72.052 65.8299 72.4 67.0299 72.4C68.3979 72.4 69.3939 71.968 70.0179 71.104C70.6659 70.216 70.9899 69.016 70.9899 67.504V58.144Z" fill="white"/>
<path d="M27.336 94.504C27.336 93.496 26.94 92.62 26.148 91.876C25.38 91.132 24.288 90.76 22.872 90.76C21.672 90.76 20.724 91.012 20.028 91.516C19.332 91.996 18.984 92.656 18.984 93.496C18.984 93.928 19.068 94.324 19.236 94.684C19.404 95.02 19.692 95.332 20.1 95.62C20.532 95.884 21.084 96.124 21.756 96.34C22.452 96.556 23.328 96.76 24.384 96.952C27.024 97.432 29.04 98.236 30.432 99.364C31.824 100.492 32.52 102.16 32.52 104.368V104.8C32.52 105.976 32.304 107.044 31.872 108.004C31.464 108.94 30.864 109.744 30.072 110.416C29.28 111.088 28.32 111.604 27.192 111.964C26.064 112.324 24.792 112.504 23.376 112.504C21.72 112.504 20.256 112.276 18.984 111.82C17.736 111.34 16.692 110.692 15.852 109.876C15.012 109.036 14.376 108.064 13.944 106.96C13.512 105.832 13.296 104.608 13.296 103.288V102.208H18.048V103.072C18.048 104.584 18.48 105.796 19.344 106.708C20.232 107.596 21.6 108.04 23.448 108.04C24.888 108.04 25.956 107.728 26.652 107.104C27.348 106.48 27.696 105.736 27.696 104.872C27.696 104.464 27.624 104.08 27.48 103.72C27.336 103.336 27.084 103 26.724 102.712C26.364 102.4 25.872 102.124 25.248 101.884C24.624 101.644 23.832 101.44 22.872 101.272C21.6 101.056 20.436 100.78 19.38 100.444C18.324 100.084 17.4 99.616 16.608 99.04C15.84 98.464 15.24 97.744 14.808 96.88C14.376 96.016 14.16 94.96 14.16 93.712V93.496C14.16 92.464 14.364 91.516 14.772 90.652C15.204 89.764 15.792 88.996 16.536 88.348C17.304 87.7 18.216 87.196 19.272 86.836C20.352 86.476 21.552 86.296 22.872 86.296C24.36 86.296 25.68 86.512 26.832 86.944C27.984 87.352 28.944 87.916 29.712 88.636C30.504 89.356 31.092 90.184 31.476 91.12C31.884 92.056 32.088 93.04 32.088 94.072V95.368H27.336V94.504ZM54.347 103.288C54.347 104.776 54.095 106.096 53.591 107.248C53.087 108.376 52.403 109.336 51.539 110.128C50.675 110.896 49.679 111.484 48.551 111.892C47.447 112.3 46.283 112.504 45.059 112.504C43.835 112.504 42.659 112.3 41.531 111.892C40.427 111.484 39.443 110.896 38.579 110.128C37.715 109.336 37.031 108.376 36.527 107.248C36.023 106.096 35.771 104.776 35.771 103.288V102.856C35.771 101.392 36.023 100.096 36.527 98.968C37.031 97.816 37.715 96.844 38.579 96.052C39.443 95.26 40.427 94.66 41.531 94.252C42.659 93.844 43.835 93.64 45.059 93.64C46.283 93.64 47.447 93.844 48.551 94.252C49.679 94.66 50.675 95.26 51.539 96.052C52.403 96.844 53.087 97.816 53.591 98.968C54.095 100.096 54.347 101.392 54.347 102.856V103.288ZM45.059 108.184C45.707 108.184 46.319 108.076 46.895 107.86C47.471 107.644 47.975 107.332 48.407 106.924C48.839 106.516 49.175 106.024 49.415 105.448C49.679 104.848 49.811 104.176 49.811 103.432V102.712C49.811 101.968 49.679 101.308 49.415 100.732C49.175 100.132 48.839 99.628 48.407 99.22C47.975 98.812 47.471 98.5 46.895 98.284C46.319 98.068 45.707 97.96 45.059 97.96C44.411 97.96 43.799 98.068 43.223 98.284C42.647 98.5 42.143 98.812 41.711 99.22C41.279 99.628 40.931 100.132 40.667 100.732C40.427 101.308 40.307 101.968 40.307 102.712V103.432C40.307 104.176 40.427 104.848 40.667 105.448C40.931 106.024 41.279 106.516 41.711 106.924C42.143 107.332 42.647 107.644 43.223 107.86C43.799 108.076 44.411 108.184 45.059 108.184ZM58.7499 94.144H63.8259V90.472C63.8259 89.44 64.1739 88.576 64.8699 87.88C65.5659 87.16 66.4299 86.8 67.4619 86.8H74.7339V91.12H69.3339C68.6859 91.12 68.3619 91.48 68.3619 92.2V94.144H75.3819V98.464H68.3619V112H63.8259V98.464H58.7499V94.144ZM80.4329 94.144H85.7249V86.8H90.2609V94.144H96.7049V98.464H90.2609V106.6C90.2609 107.32 90.5849 107.68 91.2329 107.68H96.0569V112H88.4969C87.6809 112 87.0089 111.736 86.4809 111.208C85.9769 110.68 85.7249 110.008 85.7249 109.192V98.464H80.4329V94.144Z" fill="#EFBD56"/>
<path d="M64 24H116" stroke="white"/>
<path d="M104 12L104 64" stroke="white"/>
<path d="M111 17L96 32" stroke="white"/>
</svg>
