<svg width="331" height="62" viewBox="0 0 331 62" fill="none" xmlns="http://www.w3.org/2000/svg">
<g clip-path="url(#clip0_34_1188)">
<rect width="331" height="62" rx="12" fill="#1C1D1F"/>
<rect width="331" height="62" rx="12" fill="url(#paint0_linear_34_1188)"/>
<g filter="url(#filter0_d_34_1188)">
<path fill-rule="evenodd" clip-rule="evenodd" d="M39.8553 44.8088C40.2963 44.9807 40.7992 44.9697 41.2443 44.7555L47.009 41.9816C47.6148 41.6901 48 41.077 48 40.4045V21.5958C48 20.9232 47.6148 20.3102 47.0091 20.0187L41.2443 17.2447C40.6601 16.9636 39.9765 17.0325 39.4638 17.4052C39.3906 17.4585 39.3208 17.5179 39.2553 17.5834L28.2194 27.6517L23.4124 24.0027C22.9649 23.6631 22.339 23.6909 21.9234 24.069L20.3816 25.4714C19.8733 25.9339 19.8727 26.7336 20.3804 27.1968L24.5492 31.0001L20.3804 34.8034C19.8727 35.2665 19.8733 36.0663 20.3816 36.5287L21.9234 37.9312C22.339 38.3093 22.9649 38.3371 23.4124 37.9974L28.2194 34.3485L39.2553 44.4167C39.4299 44.5914 39.6349 44.723 39.8553 44.8088ZM41.0043 24.6438L32.6305 31.0001L41.0043 37.3564V24.6438Z" fill="white"/>
</g>
<mask id="mask0_34_1188" style="mask-type:alpha" maskUnits="userSpaceOnUse" x="20" y="17" width="28" height="28">
<path fill-rule="evenodd" clip-rule="evenodd" d="M39.8553 44.8088C40.2963 44.9807 40.7992 44.9697 41.2443 44.7555L47.009 41.9816C47.6148 41.6901 48 41.077 48 40.4045V21.5958C48 20.9232 47.6148 20.3102 47.0091 20.0187L41.2443 17.2447C40.6601 16.9636 39.9765 17.0325 39.4638 17.4052C39.3906 17.4585 39.3208 17.5179 39.2553 17.5834L28.2194 27.6517L23.4124 24.0027C22.9649 23.6631 22.339 23.6909 21.9234 24.069L20.3816 25.4714C19.8733 25.9339 19.8727 26.7336 20.3804 27.1968L24.5492 31.0001L20.3804 34.8034C19.8727 35.2665 19.8733 36.0663 20.3816 36.5287L21.9234 37.9312C22.339 38.3093 22.9649 38.3371 23.4124 37.9974L28.2194 34.3485L39.2553 44.4167C39.4299 44.5914 39.6349 44.723 39.8553 44.8088ZM41.0043 24.6438L32.6305 31.0001L41.0043 37.3564V24.6438Z" fill="white"/>
</mask>
<g mask="url(#mask0_34_1188)">
<path d="M47.0092 20.0231L41.24 17.2453C40.5722 16.9238 39.7741 17.0594 39.2501 17.5835L20.3637 34.8035C19.8557 35.2666 19.8562 36.0664 20.3649 36.5289L21.9076 37.9313C22.3235 38.3094 22.9498 38.3372 23.3975 37.9975L46.1411 20.7438C46.9041 20.1649 48.0001 20.7091 48.0001 21.6669V21.5999C48.0001 20.9276 47.6149 20.3148 47.0092 20.0231Z" fill="#0065A9"/>
<g filter="url(#filter1_d_34_1188)">
<path d="M47.0092 41.9771L41.24 44.7549C40.5722 45.0765 39.7741 44.9408 39.2501 44.4167L20.3637 27.1968C19.8557 26.7336 19.8562 25.9338 20.3649 25.4714L21.9076 24.0689C22.3235 23.6909 22.9498 23.663 23.3975 24.0027L46.1411 41.2565C46.9041 41.8353 48.0001 41.2911 48.0001 40.3334V40.4004C48.0001 41.0726 47.6149 41.6854 47.0092 41.9771Z" fill="#007ACC"/>
</g>
<g filter="url(#filter2_d_34_1188)">
<path d="M41.2402 44.7555C40.5722 45.0768 39.7741 44.9409 39.25 44.4167C39.8958 45.0625 41 44.6052 41 43.6919V18.3083C41 17.395 39.8958 16.9376 39.25 17.5834C39.7741 17.0593 40.5722 16.9235 41.2402 17.2447L47.0084 20.0187C47.6146 20.3102 48 20.9232 48 21.5958V40.4045C48 41.077 47.6146 41.6901 47.0084 41.9816L41.2402 44.7555Z" fill="#1F9CF0"/>
</g>
<g style="mix-blend-mode:overlay" opacity="0.25">
<path fill-rule="evenodd" clip-rule="evenodd" d="M39.8384 44.809C40.2794 44.9808 40.7822 44.9698 41.2273 44.7556L46.992 41.9817C47.5978 41.6902 47.983 41.0772 47.983 40.4046V21.5959C47.983 20.9233 47.5978 20.3103 46.9921 20.0188L41.2273 17.2448C40.6432 16.9637 39.9595 17.0326 39.4468 17.4053C39.3736 17.4586 39.3038 17.518 39.2383 17.5835L28.2025 27.6518L23.3954 24.0029C22.948 23.6632 22.322 23.6911 21.9064 24.0691L20.3647 25.4715C19.8563 25.934 19.8557 26.7338 20.3634 27.1969L24.5322 31.0002L20.3634 34.8035C19.8557 35.2667 19.8563 36.0664 20.3647 36.5289L21.9064 37.9313C22.322 38.3094 22.948 38.3372 23.3954 37.9975L28.2025 34.3486L39.2383 44.4169C39.4129 44.5915 39.6179 44.7231 39.8384 44.809ZM40.9873 24.6439L32.6136 31.0002L40.9873 37.3565V24.6439Z" fill="url(#paint1_linear_34_1188)"/>
</g>
</g>
<g filter="url(#filter3_d_34_1188)">
<path d="M68.302 21.952H73.918V28H72.514V26.488H72.298C72.094 27.016 71.734 27.442 71.218 27.766C70.702 28.09 70.102 28.252 69.418 28.252C68.062 28.252 66.994 27.814 66.214 26.938C65.446 26.062 65.062 24.784 65.062 23.104V20.296C65.062 18.664 65.452 17.398 66.232 16.498C67.012 15.598 68.098 15.148 69.49 15.148C70.21 15.148 70.846 15.268 71.398 15.508C71.95 15.736 72.412 16.06 72.784 16.48C73.156 16.888 73.438 17.374 73.63 17.938C73.822 18.49 73.918 19.084 73.918 19.72V19.936H72.406V19.72C72.406 19.312 72.346 18.916 72.226 18.532C72.118 18.148 71.944 17.812 71.704 17.524C71.476 17.224 71.176 16.99 70.804 16.822C70.444 16.642 70.006 16.552 69.49 16.552C68.518 16.552 67.786 16.906 67.294 17.614C66.814 18.322 66.574 19.252 66.574 20.404V22.996C66.574 24.232 66.814 25.186 67.294 25.858C67.786 26.518 68.53 26.848 69.526 26.848C70.426 26.848 71.128 26.56 71.632 25.984C72.148 25.408 72.406 24.604 72.406 23.572V23.356H68.302V21.952ZM77.6135 23.968C77.6495 24.856 77.9255 25.57 78.4415 26.11C78.9575 26.65 79.6775 26.92 80.6015 26.92C81.0215 26.92 81.3875 26.872 81.6995 26.776C82.0115 26.68 82.2755 26.548 82.4915 26.38C82.7195 26.212 82.8995 26.02 83.0315 25.804C83.1755 25.576 83.2895 25.336 83.3735 25.084L84.7055 25.444C84.4535 26.272 83.9855 26.95 83.3015 27.478C82.6295 27.994 81.7175 28.252 80.5655 28.252C79.9295 28.252 79.3415 28.144 78.8015 27.928C78.2735 27.7 77.8175 27.382 77.4335 26.974C77.0495 26.566 76.7495 26.08 76.5335 25.516C76.3175 24.952 76.2095 24.328 76.2095 23.644V23.212C76.2095 22.588 76.3175 22.006 76.5335 21.466C76.7615 20.926 77.0735 20.464 77.4695 20.08C77.8655 19.684 78.3275 19.378 78.8555 19.162C79.3955 18.934 79.9775 18.82 80.6015 18.82C81.3335 18.82 81.9635 18.958 82.4915 19.234C83.0315 19.498 83.4695 19.828 83.8055 20.224C84.1535 20.62 84.4055 21.052 84.5615 21.52C84.7295 21.988 84.8135 22.42 84.8135 22.816V23.968H77.6135ZM80.6015 20.152C80.2055 20.152 79.8335 20.218 79.4855 20.35C79.1495 20.47 78.8495 20.644 78.5855 20.872C78.3335 21.1 78.1235 21.37 77.9555 21.682C77.7995 21.982 77.6975 22.312 77.6495 22.672H83.4095C83.3855 22.288 83.2895 21.94 83.1215 21.628C82.9655 21.316 82.7555 21.052 82.4915 20.836C82.2395 20.62 81.9455 20.452 81.6095 20.332C81.2855 20.212 80.9495 20.152 80.6015 20.152ZM87.303 19.072H90.111V15.4H91.515V19.072H94.971V20.368H91.515V26.164C91.515 26.524 91.677 26.704 92.001 26.704H94.539V28H91.497C91.089 28 90.753 27.868 90.489 27.604C90.237 27.34 90.111 27.004 90.111 26.596V20.368H87.303V19.072ZM112.424 16.408C112.424 16.06 112.544 15.766 112.784 15.526C113.036 15.274 113.336 15.148 113.684 15.148C114.032 15.148 114.326 15.274 114.566 15.526C114.818 15.766 114.944 16.06 114.944 16.408C114.944 16.756 114.818 17.056 114.566 17.308C114.326 17.548 114.032 17.668 113.684 17.668C113.336 17.668 113.036 17.548 112.784 17.308C112.544 17.056 112.424 16.756 112.424 16.408ZM109.868 26.704H113V20.368H110.192V19.072H114.404V26.704H117.32V28H109.868V26.704ZM120.367 19.072H123.175V15.4H124.579V19.072H128.035V20.368H124.579V26.164C124.579 26.524 124.741 26.704 125.065 26.704H127.603V28H124.561C124.153 28 123.817 27.868 123.553 27.604C123.301 27.34 123.175 27.004 123.175 26.596V20.368H120.367V19.072ZM142.626 19.072H145.38V16.804C145.38 16.396 145.506 16.06 145.758 15.796C146.022 15.532 146.358 15.4 146.766 15.4H150.294V16.696H147.27C146.946 16.696 146.784 16.876 146.784 17.236V19.072H150.51V20.368H146.784V28H145.38V20.368H142.626V19.072ZM153.234 19.072H156.474V20.26H156.69C156.918 19.768 157.242 19.408 157.662 19.18C158.082 18.94 158.562 18.82 159.102 18.82C160.002 18.82 160.728 19.114 161.28 19.702C161.832 20.29 162.126 21.148 162.162 22.276L160.686 22.492C160.686 21.664 160.488 21.07 160.092 20.71C159.696 20.338 159.21 20.152 158.634 20.152C158.262 20.152 157.938 20.224 157.662 20.368C157.398 20.512 157.176 20.71 156.996 20.962C156.816 21.214 156.684 21.508 156.6 21.844C156.516 22.18 156.474 22.54 156.474 22.924V26.704H158.742V28H153.018V26.704H155.07V20.368H153.234V19.072ZM173.183 23.644C173.183 24.388 173.057 25.048 172.805 25.624C172.565 26.188 172.241 26.668 171.833 27.064C171.425 27.448 170.945 27.742 170.393 27.946C169.853 28.15 169.289 28.252 168.701 28.252C168.101 28.252 167.531 28.15 166.991 27.946C166.451 27.742 165.977 27.448 165.569 27.064C165.161 26.668 164.831 26.188 164.579 25.624C164.339 25.048 164.219 24.388 164.219 23.644V23.428C164.219 22.696 164.339 22.048 164.579 21.484C164.831 20.908 165.161 20.422 165.569 20.026C165.989 19.63 166.469 19.33 167.009 19.126C167.549 18.922 168.113 18.82 168.701 18.82C169.289 18.82 169.853 18.922 170.393 19.126C170.933 19.33 171.407 19.63 171.815 20.026C172.235 20.422 172.565 20.908 172.805 21.484C173.057 22.048 173.183 22.696 173.183 23.428V23.644ZM168.701 26.92C169.133 26.92 169.529 26.848 169.889 26.704C170.261 26.548 170.585 26.326 170.861 26.038C171.137 25.75 171.353 25.408 171.509 25.012C171.665 24.604 171.743 24.148 171.743 23.644V23.428C171.743 22.948 171.665 22.51 171.509 22.114C171.353 21.706 171.137 21.358 170.861 21.07C170.585 20.782 170.261 20.56 169.889 20.404C169.517 20.236 169.121 20.152 168.701 20.152C168.281 20.152 167.885 20.236 167.513 20.404C167.141 20.56 166.817 20.782 166.541 21.07C166.265 21.358 166.049 21.706 165.893 22.114C165.737 22.51 165.659 22.948 165.659 23.428V23.644C165.659 24.148 165.737 24.604 165.893 25.012C166.049 25.408 166.265 25.75 166.541 26.038C166.817 26.326 167.135 26.548 167.495 26.704C167.867 26.848 168.269 26.92 168.701 26.92ZM184.367 28H182.963V21.592C182.963 21.172 182.867 20.83 182.675 20.566C182.483 20.29 182.177 20.152 181.757 20.152C181.361 20.152 181.037 20.302 180.785 20.602C180.545 20.89 180.425 21.34 180.425 21.952V28H179.021V21.52C179.021 21.124 178.913 20.8 178.697 20.548C178.481 20.284 178.193 20.152 177.833 20.152C177.401 20.152 177.065 20.308 176.825 20.62C176.597 20.932 176.483 21.34 176.483 21.844V28H175.079V19.072H176.483V20.044H176.699C176.855 19.624 177.083 19.318 177.383 19.126C177.683 18.922 178.037 18.82 178.445 18.82C178.877 18.82 179.231 18.934 179.507 19.162C179.795 19.39 179.993 19.684 180.101 20.044H180.317C180.725 19.228 181.373 18.82 182.261 18.82C182.933 18.82 183.449 19.036 183.809 19.468C184.181 19.888 184.367 20.44 184.367 21.124V28ZM67.186 34.4H74.296V35.804H68.392L67.51 39.98H73V41.384H67.204L66.322 45.596H72.028V47H64.504L67.186 34.4ZM79.3055 42.464L78.0995 39.548C78.0275 39.392 77.9195 39.314 77.7755 39.314C77.6315 39.314 77.5235 39.386 77.4515 39.53L76.6595 40.88L75.5435 40.232L76.3535 38.828C76.5455 38.504 76.7555 38.258 76.9835 38.09C77.2235 37.91 77.5175 37.82 77.8655 37.82C78.5135 37.82 78.9875 38.174 79.2875 38.882L80.3495 41.456L83.9855 37.892L84.9395 38.846L80.9075 42.788L82.0775 45.56C82.1495 45.716 82.2575 45.794 82.4015 45.794C82.5335 45.794 82.6355 45.728 82.7075 45.596L83.4815 44.21L84.6155 44.822L83.8415 46.244C83.6495 46.592 83.4275 46.844 83.1755 47C82.9235 47.168 82.6355 47.252 82.3115 47.252C82.0235 47.252 81.7475 47.168 81.4835 47C81.2315 46.844 81.0275 46.586 80.8715 46.226L79.8635 43.814L76.3895 47.216L75.4355 46.262L79.3055 42.464ZM87.573 38.072H90.669L91.497 34.148H92.901L92.073 38.072H95.241V39.368H91.785L90.507 45.434C90.471 45.578 90.483 45.692 90.543 45.776C90.615 45.86 90.705 45.902 90.813 45.902C90.897 45.902 90.987 45.872 91.083 45.812L93.477 44.192L94.197 45.254L91.803 46.874C91.419 47.126 91.023 47.252 90.615 47.252C90.195 47.252 89.835 47.126 89.535 46.874C89.235 46.622 89.085 46.244 89.085 45.74C89.085 45.656 89.091 45.572 89.103 45.488C89.115 45.392 89.133 45.296 89.157 45.2L90.381 39.368H87.573V38.072ZM99.0805 42.968C99.0565 43.064 99.0385 43.172 99.0265 43.292C99.0145 43.412 99.0085 43.538 99.0085 43.67C99.0085 44.33 99.2005 44.876 99.5845 45.308C99.9685 45.728 100.58 45.938 101.42 45.938C101.84 45.938 102.212 45.89 102.536 45.794C102.872 45.698 103.16 45.566 103.4 45.398C103.64 45.218 103.844 45.02 104.012 44.804C104.192 44.576 104.342 44.336 104.462 44.084L105.614 44.732C105.446 45.08 105.236 45.41 104.984 45.722C104.732 46.022 104.432 46.286 104.084 46.514C103.736 46.742 103.334 46.922 102.878 47.054C102.422 47.186 101.9 47.252 101.312 47.252C100.772 47.252 100.274 47.168 99.8185 47C99.3745 46.844 98.9905 46.616 98.6665 46.316C98.3425 46.004 98.0905 45.626 97.9105 45.182C97.7305 44.738 97.6405 44.234 97.6405 43.67C97.6405 42.914 97.7605 42.188 98.0005 41.492C98.2405 40.784 98.5885 40.16 99.0445 39.62C99.5005 39.08 100.064 38.648 100.736 38.324C101.408 37.988 102.17 37.82 103.022 37.82C103.622 37.82 104.144 37.916 104.588 38.108C105.032 38.288 105.398 38.54 105.686 38.864C105.974 39.176 106.19 39.536 106.334 39.944C106.478 40.34 106.55 40.754 106.55 41.186C106.55 41.51 106.514 41.822 106.442 42.122L106.244 42.968H99.0805ZM102.842 39.152C102.422 39.152 102.026 39.218 101.654 39.35C101.294 39.47 100.964 39.644 100.664 39.872C100.364 40.1 100.106 40.37 99.8905 40.682C99.6745 40.982 99.5065 41.312 99.3865 41.672H105.11C105.146 41.48 105.164 41.3 105.164 41.132C105.164 40.484 104.942 39.992 104.498 39.656C104.054 39.32 103.502 39.152 102.842 39.152ZM115.52 41.636C115.556 41.468 115.58 41.33 115.592 41.222C115.604 41.102 115.61 40.982 115.61 40.862C115.61 40.286 115.436 39.86 115.088 39.584C114.752 39.296 114.278 39.152 113.666 39.152C112.85 39.152 112.184 39.446 111.668 40.034C111.152 40.61 110.798 41.348 110.606 42.248L109.598 47H108.194L110.102 38.072H111.506L111.236 39.368H111.452C111.752 38.828 112.142 38.438 112.622 38.198C113.114 37.946 113.63 37.82 114.17 37.82C114.554 37.82 114.92 37.886 115.268 38.018C115.616 38.138 115.916 38.318 116.168 38.558C116.432 38.798 116.636 39.092 116.78 39.44C116.936 39.788 117.014 40.19 117.014 40.646C117.014 40.946 116.978 41.264 116.906 41.6L116.042 45.596C116.018 45.692 116.03 45.764 116.078 45.812C116.126 45.86 116.186 45.884 116.258 45.884C116.33 45.884 116.396 45.86 116.456 45.812L117.212 45.254L117.968 46.316L117.266 46.838C116.906 47.114 116.504 47.252 116.06 47.252C115.88 47.252 115.706 47.228 115.538 47.18C115.37 47.144 115.22 47.078 115.088 46.982C114.956 46.874 114.848 46.736 114.764 46.568C114.68 46.4 114.638 46.19 114.638 45.938C114.638 45.782 114.662 45.59 114.71 45.362L115.52 41.636ZM125.155 39.08C124.915 39.08 124.663 39.11 124.399 39.17C124.147 39.23 123.913 39.32 123.697 39.44C123.493 39.56 123.325 39.716 123.193 39.908C123.061 40.088 122.995 40.304 122.995 40.556C122.995 40.94 123.163 41.228 123.499 41.42C123.847 41.612 124.441 41.738 125.281 41.798C126.145 41.858 126.811 42.074 127.279 42.446C127.759 42.818 127.999 43.364 127.999 44.084C127.999 44.588 127.891 45.038 127.675 45.434C127.471 45.83 127.183 46.166 126.811 46.442C126.439 46.706 125.995 46.904 125.479 47.036C124.975 47.18 124.417 47.252 123.805 47.252C123.193 47.252 122.671 47.168 122.239 47C121.819 46.844 121.471 46.634 121.195 46.37C120.919 46.094 120.715 45.788 120.583 45.452C120.463 45.104 120.403 44.75 120.403 44.39C120.403 44.33 120.403 44.27 120.403 44.21C120.403 44.138 120.409 44.072 120.421 44.012L121.825 43.832C121.813 43.928 121.807 43.988 121.807 44.012C121.807 44.036 121.807 44.072 121.807 44.12C121.807 44.384 121.843 44.63 121.915 44.858C121.999 45.074 122.131 45.266 122.311 45.434C122.491 45.59 122.725 45.716 123.013 45.812C123.301 45.908 123.655 45.956 124.075 45.956C124.351 45.956 124.633 45.926 124.921 45.866C125.221 45.794 125.491 45.692 125.731 45.56C125.971 45.416 126.169 45.242 126.325 45.038C126.481 44.822 126.559 44.564 126.559 44.264C126.559 43.796 126.367 43.484 125.983 43.328C125.611 43.16 125.053 43.046 124.309 42.986C123.457 42.926 122.785 42.722 122.293 42.374C121.813 42.026 121.573 41.48 121.573 40.736C121.573 40.316 121.663 39.926 121.843 39.566C122.023 39.206 122.275 38.9 122.599 38.648C122.935 38.384 123.331 38.18 123.787 38.036C124.255 37.892 124.771 37.82 125.335 37.82C125.887 37.82 126.361 37.898 126.757 38.054C127.165 38.198 127.495 38.39 127.747 38.63C128.011 38.87 128.203 39.146 128.323 39.458C128.455 39.758 128.521 40.07 128.521 40.394V40.592L127.135 40.79V40.718C127.135 40.694 127.135 40.676 127.135 40.664C127.147 40.64 127.153 40.616 127.153 40.592C127.153 40.136 126.979 39.77 126.631 39.494C126.295 39.218 125.803 39.08 125.155 39.08ZM135.583 35.408C135.583 35.06 135.703 34.766 135.943 34.526C136.195 34.274 136.495 34.148 136.843 34.148C137.191 34.148 137.485 34.274 137.725 34.526C137.977 34.766 138.103 35.06 138.103 35.408C138.103 35.756 137.977 36.056 137.725 36.308C137.485 36.548 137.191 36.668 136.843 36.668C136.495 36.668 136.195 36.548 135.943 36.308C135.703 36.056 135.583 35.756 135.583 35.408ZM135.295 39.638C135.319 39.518 135.301 39.416 135.241 39.332C135.193 39.236 135.103 39.188 134.971 39.188C134.875 39.188 134.785 39.212 134.701 39.26L132.595 40.7L131.875 39.638L133.999 38.198C134.371 37.946 134.773 37.82 135.205 37.82C135.613 37.82 135.967 37.94 136.267 38.18C136.567 38.42 136.717 38.792 136.717 39.296C136.717 39.488 136.693 39.68 136.645 39.872L135.313 45.434C135.277 45.578 135.289 45.692 135.349 45.776C135.421 45.86 135.511 45.902 135.619 45.902C135.703 45.902 135.793 45.872 135.889 45.812L137.959 44.408L138.679 45.47L136.609 46.874C136.225 47.126 135.823 47.252 135.403 47.252C134.995 47.252 134.641 47.132 134.341 46.892C134.041 46.652 133.891 46.28 133.891 45.776C133.891 45.584 133.915 45.392 133.963 45.2L135.295 39.638ZM147.072 37.82C147.588 37.82 148.068 37.91 148.512 38.09C148.956 38.27 149.34 38.522 149.664 38.846C149.988 39.17 150.24 39.56 150.42 40.016C150.612 40.46 150.708 40.952 150.708 41.492C150.708 42.236 150.582 42.956 150.33 43.652C150.09 44.336 149.73 44.948 149.25 45.488C148.782 46.016 148.2 46.442 147.504 46.766C146.82 47.09 146.04 47.252 145.164 47.252C144.66 47.252 144.186 47.168 143.742 47C143.298 46.82 142.908 46.574 142.572 46.262C142.248 45.95 141.99 45.572 141.798 45.128C141.606 44.672 141.51 44.168 141.51 43.616C141.51 42.752 141.654 41.966 141.942 41.258C142.242 40.538 142.644 39.926 143.148 39.422C143.664 38.918 144.258 38.528 144.93 38.252C145.602 37.964 146.316 37.82 147.072 37.82ZM145.47 45.92C146.022 45.92 146.532 45.8 147 45.56C147.468 45.308 147.87 44.984 148.206 44.588C148.542 44.18 148.8 43.718 148.98 43.202C149.172 42.686 149.268 42.152 149.268 41.6C149.268 40.892 149.046 40.31 148.602 39.854C148.17 39.386 147.558 39.152 146.766 39.152C146.25 39.152 145.764 39.266 145.308 39.494C144.852 39.722 144.45 40.034 144.102 40.43C143.766 40.826 143.496 41.288 143.292 41.816C143.088 42.332 142.986 42.884 142.986 43.472C142.986 44.192 143.202 44.78 143.634 45.236C144.066 45.692 144.678 45.92 145.47 45.92ZM159.606 41.636C159.642 41.468 159.666 41.33 159.678 41.222C159.69 41.102 159.696 40.982 159.696 40.862C159.696 40.286 159.522 39.86 159.174 39.584C158.838 39.296 158.364 39.152 157.752 39.152C156.936 39.152 156.27 39.446 155.754 40.034C155.238 40.61 154.884 41.348 154.692 42.248L153.684 47H152.28L154.188 38.072H155.592L155.322 39.368H155.538C155.838 38.828 156.228 38.438 156.708 38.198C157.2 37.946 157.716 37.82 158.256 37.82C158.64 37.82 159.006 37.886 159.354 38.018C159.702 38.138 160.002 38.318 160.254 38.558C160.518 38.798 160.722 39.092 160.866 39.44C161.022 39.788 161.1 40.19 161.1 40.646C161.1 40.946 161.064 41.264 160.992 41.6L160.128 45.596C160.104 45.692 160.116 45.764 160.164 45.812C160.212 45.86 160.272 45.884 160.344 45.884C160.416 45.884 160.482 45.86 160.542 45.812L161.298 45.254L162.054 46.316L161.352 46.838C160.992 47.114 160.59 47.252 160.146 47.252C159.966 47.252 159.792 47.228 159.624 47.18C159.456 47.144 159.306 47.078 159.174 46.982C159.042 46.874 158.934 46.736 158.85 46.568C158.766 46.4 158.724 46.19 158.724 45.938C158.724 45.782 158.748 45.59 158.796 45.362L159.606 41.636ZM169.241 39.08C169.001 39.08 168.749 39.11 168.485 39.17C168.233 39.23 167.999 39.32 167.783 39.44C167.579 39.56 167.411 39.716 167.279 39.908C167.147 40.088 167.081 40.304 167.081 40.556C167.081 40.94 167.249 41.228 167.585 41.42C167.933 41.612 168.527 41.738 169.367 41.798C170.231 41.858 170.897 42.074 171.365 42.446C171.845 42.818 172.085 43.364 172.085 44.084C172.085 44.588 171.977 45.038 171.761 45.434C171.557 45.83 171.269 46.166 170.897 46.442C170.525 46.706 170.081 46.904 169.565 47.036C169.061 47.18 168.503 47.252 167.891 47.252C167.279 47.252 166.757 47.168 166.325 47C165.905 46.844 165.557 46.634 165.281 46.37C165.005 46.094 164.801 45.788 164.669 45.452C164.549 45.104 164.489 44.75 164.489 44.39C164.489 44.33 164.489 44.27 164.489 44.21C164.489 44.138 164.495 44.072 164.507 44.012L165.911 43.832C165.899 43.928 165.893 43.988 165.893 44.012C165.893 44.036 165.893 44.072 165.893 44.12C165.893 44.384 165.929 44.63 166.001 44.858C166.085 45.074 166.217 45.266 166.397 45.434C166.577 45.59 166.811 45.716 167.099 45.812C167.387 45.908 167.741 45.956 168.161 45.956C168.437 45.956 168.719 45.926 169.007 45.866C169.307 45.794 169.577 45.692 169.817 45.56C170.057 45.416 170.255 45.242 170.411 45.038C170.567 44.822 170.645 44.564 170.645 44.264C170.645 43.796 170.453 43.484 170.069 43.328C169.697 43.16 169.139 43.046 168.395 42.986C167.543 42.926 166.871 42.722 166.379 42.374C165.899 42.026 165.659 41.48 165.659 40.736C165.659 40.316 165.749 39.926 165.929 39.566C166.109 39.206 166.361 38.9 166.685 38.648C167.021 38.384 167.417 38.18 167.873 38.036C168.341 37.892 168.857 37.82 169.421 37.82C169.973 37.82 170.447 37.898 170.843 38.054C171.251 38.198 171.581 38.39 171.833 38.63C172.097 38.87 172.289 39.146 172.409 39.458C172.541 39.758 172.607 40.07 172.607 40.394V40.592L171.221 40.79V40.718C171.221 40.694 171.221 40.676 171.221 40.664C171.233 40.64 171.239 40.616 171.239 40.592C171.239 40.136 171.065 39.77 170.717 39.494C170.381 39.218 169.889 39.08 169.241 39.08ZM187.612 34.4H190.474L189.43 46.352H189.646L193.588 34.4H196.54L193.858 47H192.454L194.992 35.048H194.776L190.834 47H188.062L189.088 35.048H188.872L186.334 47H184.948L187.612 34.4ZM202.504 45.596C202.132 46.232 201.688 46.67 201.172 46.91C200.668 47.138 200.134 47.252 199.57 47.252C199.09 47.252 198.658 47.168 198.274 47C197.89 46.82 197.566 46.574 197.302 46.262C197.038 45.95 196.834 45.578 196.69 45.146C196.546 44.702 196.474 44.216 196.474 43.688C196.474 42.932 196.582 42.2 196.798 41.492C197.014 40.784 197.326 40.16 197.734 39.62C198.154 39.08 198.67 38.648 199.282 38.324C199.894 37.988 200.602 37.82 201.406 37.82C202.018 37.82 202.54 37.964 202.972 38.252C203.404 38.528 203.686 38.936 203.818 39.476H204.034L204.322 38.072H205.726L204.142 45.488C204.118 45.596 204.13 45.68 204.178 45.74C204.226 45.788 204.292 45.812 204.376 45.812C204.46 45.812 204.544 45.782 204.628 45.722L205.276 45.254L206.032 46.316L205.222 46.928C205.09 47.024 204.922 47.102 204.718 47.162C204.526 47.222 204.328 47.252 204.124 47.252C203.944 47.252 203.77 47.228 203.602 47.18C203.434 47.132 203.278 47.06 203.134 46.964C203.002 46.856 202.894 46.724 202.81 46.568C202.726 46.4 202.684 46.196 202.684 45.956C202.684 45.896 202.684 45.836 202.684 45.776C202.696 45.716 202.708 45.656 202.72 45.596H202.504ZM200.002 45.92C200.482 45.92 200.932 45.812 201.352 45.596C201.784 45.368 202.156 45.062 202.468 44.678C202.792 44.294 203.044 43.844 203.224 43.328C203.404 42.8 203.494 42.23 203.494 41.618C203.494 40.874 203.326 40.28 202.99 39.836C202.654 39.38 202.132 39.152 201.424 39.152C200.86 39.152 200.362 39.272 199.93 39.512C199.51 39.752 199.15 40.076 198.85 40.484C198.55 40.88 198.322 41.342 198.166 41.87C198.022 42.398 197.95 42.944 197.95 43.508C197.95 44.3 198.124 44.9 198.472 45.308C198.82 45.716 199.33 45.92 200.002 45.92ZM210.771 39.62C210.807 39.476 210.789 39.368 210.717 39.296C210.645 39.212 210.555 39.17 210.447 39.17C210.351 39.17 210.261 39.2 210.177 39.26L208.539 40.376L207.819 39.314L209.421 38.234C209.829 37.958 210.243 37.82 210.663 37.82C211.035 37.82 211.359 37.928 211.635 38.144C211.911 38.348 212.067 38.684 212.103 39.152H212.319C212.667 38.66 213.057 38.318 213.489 38.126C213.921 37.922 214.371 37.82 214.839 37.82C215.703 37.82 216.381 38.072 216.873 38.576C217.365 39.068 217.611 39.722 217.611 40.538C217.611 40.85 217.575 41.168 217.503 41.492L215.973 41.6C216.033 41.3 216.063 41.048 216.063 40.844C216.063 40.268 215.901 39.842 215.577 39.566C215.265 39.29 214.857 39.152 214.353 39.152C213.993 39.152 213.663 39.224 213.363 39.368C213.075 39.5 212.823 39.686 212.607 39.926C212.391 40.154 212.205 40.424 212.049 40.736C211.905 41.048 211.797 41.372 211.725 41.708L210.879 45.704H213.003V47H207.279V45.704H209.475L210.771 39.62ZM223.323 34.166L221.721 41.78H221.937L226.401 37.856L227.265 38.774L223.287 42.266V42.59L225.609 45.758C225.681 45.842 225.759 45.884 225.843 45.884C225.915 45.884 225.993 45.854 226.077 45.794L226.941 45.164L227.697 46.226L226.887 46.838C226.719 46.97 226.545 47.072 226.365 47.144C226.185 47.216 225.993 47.252 225.789 47.252C225.549 47.252 225.315 47.192 225.087 47.072C224.871 46.952 224.661 46.754 224.457 46.478L221.973 43.076H221.433L220.605 47H219.201L221.919 34.166H223.323ZM231.338 42.968C231.314 43.064 231.296 43.172 231.284 43.292C231.272 43.412 231.266 43.538 231.266 43.67C231.266 44.33 231.458 44.876 231.842 45.308C232.226 45.728 232.838 45.938 233.678 45.938C234.098 45.938 234.47 45.89 234.794 45.794C235.13 45.698 235.418 45.566 235.658 45.398C235.898 45.218 236.102 45.02 236.27 44.804C236.45 44.576 236.6 44.336 236.72 44.084L237.872 44.732C237.704 45.08 237.494 45.41 237.242 45.722C236.99 46.022 236.69 46.286 236.342 46.514C235.994 46.742 235.592 46.922 235.136 47.054C234.68 47.186 234.158 47.252 233.57 47.252C233.03 47.252 232.532 47.168 232.076 47C231.632 46.844 231.248 46.616 230.924 46.316C230.6 46.004 230.348 45.626 230.168 45.182C229.988 44.738 229.898 44.234 229.898 43.67C229.898 42.914 230.018 42.188 230.258 41.492C230.498 40.784 230.846 40.16 231.302 39.62C231.758 39.08 232.322 38.648 232.994 38.324C233.666 37.988 234.428 37.82 235.28 37.82C235.88 37.82 236.402 37.916 236.846 38.108C237.29 38.288 237.656 38.54 237.944 38.864C238.232 39.176 238.448 39.536 238.592 39.944C238.736 40.34 238.808 40.754 238.808 41.186C238.808 41.51 238.772 41.822 238.7 42.122L238.502 42.968H231.338ZM235.1 39.152C234.68 39.152 234.284 39.218 233.912 39.35C233.552 39.47 233.222 39.644 232.922 39.872C232.622 40.1 232.364 40.37 232.148 40.682C231.932 40.982 231.764 41.312 231.644 41.672H237.368C237.404 41.48 237.422 41.3 237.422 41.132C237.422 40.484 237.2 39.992 236.756 39.656C236.312 39.32 235.76 39.152 235.1 39.152ZM241.874 38.072H244.97L245.798 34.148H247.202L246.374 38.072H249.542V39.368H246.086L244.808 45.434C244.772 45.578 244.784 45.692 244.844 45.776C244.916 45.86 245.006 45.902 245.114 45.902C245.198 45.902 245.288 45.872 245.384 45.812L247.778 44.192L248.498 45.254L246.104 46.874C245.72 47.126 245.324 47.252 244.916 47.252C244.496 47.252 244.136 47.126 243.836 46.874C243.536 46.622 243.386 46.244 243.386 45.74C243.386 45.656 243.392 45.572 243.404 45.488C243.416 45.392 243.434 45.296 243.458 45.2L244.682 39.368H241.874V38.072ZM252.751 50.6H251.365L253.723 39.422C253.747 39.29 253.735 39.2 253.687 39.152C253.639 39.092 253.567 39.062 253.471 39.062C253.411 39.062 253.357 39.08 253.309 39.116L252.319 39.8L251.599 38.738L252.445 38.162C252.781 37.934 253.147 37.82 253.543 37.82C254.023 37.82 254.401 37.952 254.677 38.216C254.965 38.48 255.109 38.864 255.109 39.368V39.476H255.325C255.685 38.936 256.117 38.528 256.621 38.252C257.137 37.964 257.749 37.82 258.457 37.82C258.949 37.82 259.399 37.91 259.807 38.09C260.227 38.258 260.581 38.498 260.869 38.81C261.169 39.11 261.403 39.476 261.571 39.908C261.739 40.328 261.823 40.784 261.823 41.276C261.823 42.068 261.715 42.824 261.499 43.544C261.295 44.264 260.983 44.9 260.563 45.452C260.143 46.004 259.621 46.442 258.997 46.766C258.373 47.09 257.641 47.252 256.801 47.252C256.129 47.252 255.547 47.102 255.055 46.802C254.575 46.49 254.233 46.1 254.029 45.632H253.813L252.751 50.6ZM256.621 45.92C257.209 45.92 257.731 45.8 258.187 45.56C258.655 45.32 259.045 45.002 259.357 44.606C259.681 44.198 259.921 43.73 260.077 43.202C260.245 42.674 260.329 42.128 260.329 41.564C260.329 40.772 260.119 40.172 259.699 39.764C259.291 39.356 258.745 39.152 258.061 39.152C257.509 39.152 257.005 39.278 256.549 39.53C256.105 39.782 255.721 40.112 255.397 40.52C255.073 40.928 254.821 41.39 254.641 41.906C254.461 42.422 254.371 42.95 254.371 43.49C254.371 44.258 254.569 44.858 254.965 45.29C255.361 45.71 255.913 45.92 256.621 45.92ZM267.859 35.948C267.895 35.804 267.877 35.696 267.805 35.624C267.745 35.54 267.655 35.498 267.535 35.498C267.451 35.498 267.361 35.528 267.265 35.588L265.159 37.028L264.439 35.966L266.563 34.526C266.755 34.394 266.953 34.298 267.157 34.238C267.361 34.178 267.565 34.148 267.769 34.148C268.165 34.148 268.513 34.268 268.813 34.508C269.125 34.748 269.281 35.12 269.281 35.624C269.281 35.828 269.257 36.02 269.209 36.2L267.031 45.434C266.995 45.578 267.007 45.692 267.067 45.776C267.139 45.86 267.229 45.902 267.337 45.902C267.421 45.902 267.511 45.872 267.607 45.812L269.677 44.408L270.397 45.47L268.327 46.874C267.943 47.126 267.541 47.252 267.121 47.252C266.725 47.252 266.371 47.132 266.059 46.892C265.759 46.652 265.609 46.28 265.609 45.776C265.609 45.572 265.633 45.38 265.681 45.2L267.859 35.948ZM279.654 45.596C279.282 46.232 278.838 46.67 278.322 46.91C277.818 47.138 277.284 47.252 276.72 47.252C276.24 47.252 275.808 47.168 275.424 47C275.04 46.82 274.716 46.574 274.452 46.262C274.188 45.95 273.984 45.578 273.84 45.146C273.696 44.702 273.624 44.216 273.624 43.688C273.624 42.932 273.732 42.2 273.948 41.492C274.164 40.784 274.476 40.16 274.884 39.62C275.304 39.08 275.82 38.648 276.432 38.324C277.044 37.988 277.752 37.82 278.556 37.82C279.168 37.82 279.69 37.964 280.122 38.252C280.554 38.528 280.836 38.936 280.968 39.476H281.184L281.472 38.072H282.876L281.292 45.488C281.268 45.596 281.28 45.68 281.328 45.74C281.376 45.788 281.442 45.812 281.526 45.812C281.61 45.812 281.694 45.782 281.778 45.722L282.426 45.254L283.182 46.316L282.372 46.928C282.24 47.024 282.072 47.102 281.868 47.162C281.676 47.222 281.478 47.252 281.274 47.252C281.094 47.252 280.92 47.228 280.752 47.18C280.584 47.132 280.428 47.06 280.284 46.964C280.152 46.856 280.044 46.724 279.96 46.568C279.876 46.4 279.834 46.196 279.834 45.956C279.834 45.896 279.834 45.836 279.834 45.776C279.846 45.716 279.858 45.656 279.87 45.596H279.654ZM277.152 45.92C277.632 45.92 278.082 45.812 278.502 45.596C278.934 45.368 279.306 45.062 279.618 44.678C279.942 44.294 280.194 43.844 280.374 43.328C280.554 42.8 280.644 42.23 280.644 41.618C280.644 40.874 280.476 40.28 280.14 39.836C279.804 39.38 279.282 39.152 278.574 39.152C278.01 39.152 277.512 39.272 277.08 39.512C276.66 39.752 276.3 40.076 276 40.484C275.7 40.88 275.472 41.342 275.316 41.87C275.172 42.398 275.1 42.944 275.1 43.508C275.1 44.3 275.274 44.9 275.622 45.308C275.97 45.716 276.48 45.92 277.152 45.92ZM293.61 43.94C293.454 44.396 293.238 44.828 292.962 45.236C292.686 45.632 292.338 45.98 291.918 46.28C291.51 46.58 291.03 46.82 290.478 47C289.938 47.168 289.326 47.252 288.642 47.252C288.078 47.252 287.562 47.168 287.094 47C286.638 46.82 286.248 46.568 285.924 46.244C285.6 45.92 285.348 45.53 285.168 45.074C284.988 44.618 284.898 44.108 284.898 43.544C284.898 42.764 285.03 42.026 285.294 41.33C285.57 40.634 285.954 40.028 286.446 39.512C286.938 38.984 287.532 38.57 288.228 38.27C288.924 37.97 289.698 37.82 290.55 37.82C291.102 37.82 291.6 37.898 292.044 38.054C292.488 38.21 292.866 38.432 293.178 38.72C293.49 38.996 293.73 39.332 293.898 39.728C294.066 40.112 294.15 40.538 294.15 41.006C294.15 41.03 294.15 41.06 294.15 41.096C294.15 41.12 294.144 41.18 294.132 41.276L292.692 41.492C292.704 41.42 292.71 41.366 292.71 41.33C292.71 41.294 292.71 41.252 292.71 41.204C292.71 40.916 292.662 40.652 292.566 40.412C292.482 40.16 292.338 39.944 292.134 39.764C291.942 39.572 291.69 39.422 291.378 39.314C291.078 39.206 290.718 39.152 290.298 39.152C289.734 39.152 289.212 39.266 288.732 39.494C288.264 39.722 287.85 40.034 287.49 40.43C287.142 40.814 286.866 41.264 286.662 41.78C286.47 42.296 286.374 42.836 286.374 43.4C286.374 44.252 286.602 44.888 287.058 45.308C287.514 45.716 288.138 45.92 288.93 45.92C289.41 45.92 289.836 45.854 290.208 45.722C290.58 45.578 290.904 45.398 291.18 45.182C291.456 44.954 291.684 44.696 291.864 44.408C292.044 44.12 292.182 43.82 292.278 43.508L293.61 43.94ZM297.467 42.968C297.443 43.064 297.425 43.172 297.413 43.292C297.401 43.412 297.395 43.538 297.395 43.67C297.395 44.33 297.587 44.876 297.971 45.308C298.355 45.728 298.967 45.938 299.807 45.938C300.227 45.938 300.599 45.89 300.923 45.794C301.259 45.698 301.547 45.566 301.787 45.398C302.027 45.218 302.231 45.02 302.399 44.804C302.579 44.576 302.729 44.336 302.849 44.084L304.001 44.732C303.833 45.08 303.623 45.41 303.371 45.722C303.119 46.022 302.819 46.286 302.471 46.514C302.123 46.742 301.721 46.922 301.265 47.054C300.809 47.186 300.287 47.252 299.699 47.252C299.159 47.252 298.661 47.168 298.205 47C297.761 46.844 297.377 46.616 297.053 46.316C296.729 46.004 296.477 45.626 296.297 45.182C296.117 44.738 296.027 44.234 296.027 43.67C296.027 42.914 296.147 42.188 296.387 41.492C296.627 40.784 296.975 40.16 297.431 39.62C297.887 39.08 298.451 38.648 299.123 38.324C299.795 37.988 300.557 37.82 301.409 37.82C302.009 37.82 302.531 37.916 302.975 38.108C303.419 38.288 303.785 38.54 304.073 38.864C304.361 39.176 304.577 39.536 304.721 39.944C304.865 40.34 304.937 40.754 304.937 41.186C304.937 41.51 304.901 41.822 304.829 42.122L304.631 42.968H297.467ZM301.229 39.152C300.809 39.152 300.413 39.218 300.041 39.35C299.681 39.47 299.351 39.644 299.051 39.872C298.751 40.1 298.493 40.37 298.277 40.682C298.061 40.982 297.893 41.312 297.773 41.672H303.497C303.533 41.48 303.551 41.3 303.551 41.132C303.551 40.484 303.329 39.992 302.885 39.656C302.441 39.32 301.889 39.152 301.229 39.152Z" fill="white"/>
</g>
</g>
<rect x="0.5" y="0.5" width="330" height="61" rx="11.5" stroke="url(#paint2_linear_34_1188)"/>
<defs>
<filter id="filter0_d_34_1188" x="12" y="13.0723" width="44" height="43.8556" filterUnits="userSpaceOnUse" color-interpolation-filters="sRGB">
<feFlood flood-opacity="0" result="BackgroundImageFix"/>
<feColorMatrix in="SourceAlpha" type="matrix" values="0 0 0 0 0 0 0 0 0 0 0 0 0 0 0 0 0 0 127 0" result="hardAlpha"/>
<feOffset dy="4"/>
<feGaussianBlur stdDeviation="4"/>
<feComposite in2="hardAlpha" operator="out"/>
<feColorMatrix type="matrix" values="0 0 0 0 0 0 0 0 0 0 0 0 0 0 0 0 0 0 0.25 0"/>
<feBlend mode="normal" in2="BackgroundImageFix" result="effect1_dropShadow_34_1188"/>
<feBlend mode="normal" in="SourceGraphic" in2="effect1_dropShadow_34_1188" result="shape"/>
</filter>
<filter id="filter1_d_34_1188" x="15.1219" y="18.9044" width="37.7392" height="30.8843" filterUnits="userSpaceOnUse" color-interpolation-filters="sRGB">
<feFlood flood-opacity="0" result="BackgroundImageFix"/>
<feColorMatrix in="SourceAlpha" type="matrix" values="0 0 0 0 0 0 0 0 0 0 0 0 0 0 0 0 0 0 127 0" result="hardAlpha"/>
<feOffset/>
<feGaussianBlur stdDeviation="2.43056"/>
<feColorMatrix type="matrix" values="0 0 0 0 0 0 0 0 0 0 0 0 0 0 0 0 0 0 0.25 0"/>
<feBlend mode="overlay" in2="BackgroundImageFix" result="effect1_dropShadow_34_1188"/>
<feBlend mode="normal" in="SourceGraphic" in2="effect1_dropShadow_34_1188" result="shape"/>
</filter>
<filter id="filter2_d_34_1188" x="34.3889" y="12.2112" width="18.4722" height="37.5779" filterUnits="userSpaceOnUse" color-interpolation-filters="sRGB">
<feFlood flood-opacity="0" result="BackgroundImageFix"/>
<feColorMatrix in="SourceAlpha" type="matrix" values="0 0 0 0 0 0 0 0 0 0 0 0 0 0 0 0 0 0 127 0" result="hardAlpha"/>
<feOffset/>
<feGaussianBlur stdDeviation="2.43056"/>
<feColorMatrix type="matrix" values="0 0 0 0 0 0 0 0 0 0 0 0 0 0 0 0 0 0 0.25 0"/>
<feBlend mode="overlay" in2="BackgroundImageFix" result="effect1_dropShadow_34_1188"/>
<feBlend mode="normal" in="SourceGraphic" in2="effect1_dropShadow_34_1188" result="shape"/>
</filter>
<filter id="filter3_d_34_1188" x="56.504" y="11.1479" width="256.433" height="51.452" filterUnits="userSpaceOnUse" color-interpolation-filters="sRGB">
<feFlood flood-opacity="0" result="BackgroundImageFix"/>
<feColorMatrix in="SourceAlpha" type="matrix" values="0 0 0 0 0 0 0 0 0 0 0 0 0 0 0 0 0 0 127 0" result="hardAlpha"/>
<feOffset dy="4"/>
<feGaussianBlur stdDeviation="4"/>
<feComposite in2="hardAlpha" operator="out"/>
<feColorMatrix type="matrix" values="0 0 0 0 0 0 0 0 0 0 0 0 0 0 0 0 0 0 0.5 0"/>
<feBlend mode="normal" in2="BackgroundImageFix" result="effect1_dropShadow_34_1188"/>
<feBlend mode="normal" in="SourceGraphic" in2="effect1_dropShadow_34_1188" result="shape"/>
</filter>
<linearGradient id="paint0_linear_34_1188" x1="49" y1="85.9426" x2="97.5" y2="-16.5574" gradientUnits="userSpaceOnUse">
<stop stop-color="#22A4F1" stop-opacity="0.6"/>
<stop offset="1" stop-color="#1C1D1F" stop-opacity="0"/>
</linearGradient>
<linearGradient id="paint1_linear_34_1188" x1="33.983" y1="17.0724" x2="33.983" y2="44.928" gradientUnits="userSpaceOnUse">
<stop stop-color="white"/>
<stop offset="1" stop-color="white" stop-opacity="0"/>
</linearGradient>
<linearGradient id="paint2_linear_34_1188" x1="-0.5" y1="0.442628" x2="330.5" y2="62.4426" gradientUnits="userSpaceOnUse">
<stop stop-color="white" stop-opacity="0.5"/>
<stop offset="0.471154" stop-color="#1C1D1F" stop-opacity="0.5"/>
<stop offset="1" stop-opacity="0.5"/>
</linearGradient>
<clipPath id="clip0_34_1188">
<rect width="331" height="62" rx="12" fill="white"/>
</clipPath>
</defs>
</svg>
